<?xml version="1.0" standalone="no"?>
<!DOCTYPE svg PUBLIC "-//W3C//DTD SVG 1.1//EN" "http://www.w3.org/Graphics/SVG/1.1/DTD/svg11.dtd" >
<svg xmlns="http://www.w3.org/2000/svg">
<metadata>
Created by FontPrep 20130207 at Thu May 11 16:28:02 2017
 By Chris Ellis
Copyright (c) 2014 by Grilli Type. All rights reserved.
</metadata>
<defs>
<font id="8daf56e54674afce996217790b1a8b83" horiz-adv-x='1024' >
  <font-face 
    font-family="GTWalsheimProTrial-Regular"
    font-weight="400"
    font-stretch="normal"
    units-per-em="2048"
    panose-1="2 0 5 3 4 0 0 2 0 3"
    ascent="1516"
    descent="-532"
    x-height="930"
    cap-height="1434"
    bbox="-25 -524 2609 1466"
    underline-thickness="102"
    underline-position="-51"
    unicode-range="U+0020-FB01"
  />
<missing-glyph horiz-adv-x="1126" 
d="M782 406q0 -57 -49 -58q-35 0 -35 27t47 33l37 4v-6zM637 373q0 -68 78 -70q51 0 71 39q0 -23 2 -33h60q-6 31 -6 43v82q0 55 -20 80t-74 25q-100 0 -105 -76h59q2 31 41 31t39 -45q-66 -6 -102 -17q-43 -18 -43 -59zM770 700v324h-59v-324h59zM623 633h-66v-62h66v62z
M297 750q-84 0 -84 110t87 111q44 0 58 -47l62 24q-29 80 -112 80t-123 -47t-40 -120t37 -120t102 -47t87 41l8 -35h47v179h-137v-58h82v-4q-1 -25 -19 -47t-55 -20zM897 1024v-59h66v59h-66zM616 1024v-59h66v59h-66zM524 539q-41 0 -61 -43v36h-57v-223h61v101q0 72 57 71
q13 0 21 -2v58q-6 2 -21 2zM874 309h60v324h-60v-324zM182 629v-60h90v-260h62v260h90v60h-242zM899 926v-226h62v226h-62zM582 932q-37 0 -64 -43v37h-55v-226h59v103q0 72 62 71q14 0 20 -2v56q-12 4 -22 4zM621 532h-62v-223h62v223zM102 0v1434h922v-1434h-922zM618 926
v-226h62v226h-62zM864 700v324h-61v-324h61z" />
    <glyph glyph-name=".notdef" horiz-adv-x="1126" 
d="M782 406q0 -57 -49 -58q-35 0 -35 27t47 33l37 4v-6zM637 373q0 -68 78 -70q51 0 71 39q0 -23 2 -33h60q-6 31 -6 43v82q0 55 -20 80t-74 25q-100 0 -105 -76h59q2 31 41 31t39 -45q-66 -6 -102 -17q-43 -18 -43 -59zM770 700v324h-59v-324h59zM623 633h-66v-62h66v62z
M297 750q-84 0 -84 110t87 111q44 0 58 -47l62 24q-29 80 -112 80t-123 -47t-40 -120t37 -120t102 -47t87 41l8 -35h47v179h-137v-58h82v-4q-1 -25 -19 -47t-55 -20zM897 1024v-59h66v59h-66zM616 1024v-59h66v59h-66zM524 539q-41 0 -61 -43v36h-57v-223h61v101q0 72 57 71
q13 0 21 -2v58q-6 2 -21 2zM874 309h60v324h-60v-324zM182 629v-60h90v-260h62v260h90v60h-242zM899 926v-226h62v226h-62zM582 932q-37 0 -64 -43v37h-55v-226h59v103q0 72 62 71q14 0 20 -2v56q-12 4 -22 4zM621 532h-62v-223h62v223zM102 0v1434h922v-1434h-922zM618 926
v-226h62v226h-62zM864 700v324h-61v-324h61z" />
    <glyph glyph-name=".null" horiz-adv-x="0" 
 />
    <glyph glyph-name=".null" horiz-adv-x="0" 
 />
    <glyph glyph-name="nonmarkingreturn" horiz-adv-x="681" 
 />
    <glyph glyph-name="space" unicode=" " horiz-adv-x="518" 
 />
    <glyph glyph-name="exclam" unicode="!" horiz-adv-x="522" 
d="M119 133q0 59 41 101t100 42t102 -42q44 -42 44 -101t-44 -101t-102 -42q-59 0 -100 42t-41 101z" />
    <glyph glyph-name="comma" unicode="," horiz-adv-x="552" 
d="M119 132q0 60 42 102q43 42 111 42t116 -58t48 -148q0 -162 -79 -234t-228 -74v88q106 0 147 64q31 45 31 90q-16 -16 -63 -16t-86 42t-39 102z" />
    <glyph glyph-name="hyphen" unicode="-" horiz-adv-x="602" 
d="M541 664v-160h-480v160h480z" />
    <glyph glyph-name="period" unicode="." horiz-adv-x="522" 
d="M119 133q0 59 41 101t100 42t102 -42q44 -42 44 -101t-44 -101t-102 -42q-59 0 -100 42t-41 101z" />
    <glyph glyph-name="zero" unicode="0" horiz-adv-x="1185" 
d="M897 463v508q0 133 -85 226t-220 93t-219 -93t-84 -226v-508q0 -133 84 -226t218 -93t220 92q86 94 86 227zM102 463v508q0 203 136 345t354 142q217 0 354 -141t137 -346v-508q0 -203 -137 -345t-354 -142q-218 0 -354 142t-136 345z" />
    <glyph glyph-name="one" unicode="1" horiz-adv-x="706" 
d="M63 1047v149q184 0 245 51q60 51 61 187h178v-1434h-193v1047h-291z" />
    <glyph glyph-name="two" unicode="2" horiz-adv-x="1079" 
d="M96 0q0 329 110 479q58 80 123 130q65 49 157 97t128 70t89 63q102 79 102 204t-68 185q-69 60 -187 60t-193 -74t-74 -206h-187q0 204 132 326t328 122t316 -110t119 -306q-1 -76 -31 -146t-67 -113q-37 -44 -105 -94t-216 -131t-205 -162t-58 -226h682v-168h-895z" />
    <glyph glyph-name="three" unicode="3" horiz-adv-x="1144" 
d="M68 453h186q0 -139 87 -223t218 -85q131 0 208 74q77 75 77 189t-72 186t-219 72h-102v165h102q260 0 260 238q0 103 -68 161q-69 58 -193 58t-190 -70t-65 -190h-188q0 190 123 309q124 119 316 119t322 -108q129 -108 129 -279q0 -123 -59 -206t-162 -115
q117 -37 186 -125t68 -222q0 -186 -137 -305t-342 -119q-205 -1 -345 129t-140 347z" />
    <glyph glyph-name="four" unicode="4" horiz-adv-x="1130" 
d="M672 0v461h-533v973h187v-805h346v442h186v-442h215v-168h-215v-461h-186z" />
    <glyph glyph-name="five" unicode="5" horiz-adv-x="1224" 
d="M166 610v824h844v-168h-676v-480q41 80 134 122t187 42q217 0 340 -139t123 -344t-137 -347t-354 -142t-353 142t-137 345h187q0 -133 84 -226t219 -93t219 92q84 94 84 228t-84 225t-221 91q-188 0 -269 -172h-190z" />
    <glyph glyph-name="six" unicode="6" horiz-adv-x="1138" 
d="M262 465q0 -133 84 -227t219 -93q135 -1 220 93t85 227t-85 226t-220 93t-219 -93t-84 -226zM1057 466q1 -204 -137 -346t-355 -143q-217 1 -353 143t-136 345q0 150 84 285l428 684h215l-328 -504q31 25 88 24q219 0 357 -142t137 -346z" />
    <glyph glyph-name="seven" unicode="7" horiz-adv-x="956" 
d="M78 1434h889l-637 -1434h-199l569 1266h-622v168z" />
    <glyph glyph-name="eight" unicode="8" horiz-adv-x="1187" 
d="M299 403q0 -111 81 -185t215 -73q134 0 214 74q80 73 80 183t-79 185t-216 75t-216 -74t-79 -185zM594 813q122 0 192 68t70 170t-72 170q-72 67 -190 67t-191 -68q-71 -68 -71 -170q0 -101 70 -169t192 -68zM594 -23q-219 0 -350 122t-131 304q0 121 61 217t176 130
q-104 36 -155 120t-52 189q0 169 123 283t328 114t328 -115t122 -282q0 -105 -51 -189t-155 -120q115 -34 176 -132t61 -215q0 -178 -131 -302t-350 -124z" />
    <glyph glyph-name="nine" unicode="9" horiz-adv-x="1138" 
d="M573 1288q-135 0 -220 -93t-85 -226t85 -227t220 -93q135 0 220 93q84 92 84 226t-84 227q-85 93 -220 93zM573 1456q217 0 353 -142t137 -345q0 -143 -86 -285l-426 -684h-215l326 500q-18 -18 -64 -19q-231 0 -374 137q-142 136 -142 346t137 351t354 141z" />
    <glyph glyph-name="colon" unicode=":" horiz-adv-x="522" 
d="M119 133q0 59 41 101t100 42t102 -42q44 -42 44 -101t-44 -101t-102 -42q-59 0 -100 42t-41 101z" />
    <glyph glyph-name="semicolon" unicode=";" horiz-adv-x="552" 
d="M119 132q0 60 42 102q43 42 111 42t116 -58t48 -148q0 -162 -79 -234t-228 -74v88q106 0 147 64q31 45 31 90q-16 -16 -63 -16t-86 42t-39 102z" />
    <glyph glyph-name="question" unicode="?" horiz-adv-x="522" 
d="M119 133q0 59 41 101t100 42t102 -42q44 -42 44 -101t-44 -101t-102 -42q-59 0 -100 42t-41 101z" />
    <glyph glyph-name="A" unicode="A" horiz-adv-x="1144" 
d="M805 389l-232 739l-235 -739h467zM1135 0h-197l-76 219h-581l-74 -219h-197l494 1434h135z" />
    <glyph glyph-name="B" unicode="B" horiz-adv-x="1210" 
d="M346 809h307q127 0 187 70q59 71 59 159t-60 158t-190 70h-303v-457zM664 639h-318v-471h313q129 0 190 70q60 70 60 160t-62 166q-62 75 -183 75zM160 0v1434h489q332 0 416 -253q20 -62 20 -130q1 -125 -75 -214t-181 -110q95 -6 181 -97t86 -231t-91 -261
q-47 -62 -139 -100t-215 -38h-491z" />
    <glyph glyph-name="C" unicode="C" horiz-adv-x="1587" 
d="M836 -33q-340 0 -546 219q-206 218 -206 528t201 531t512 221t489 -148t221 -386h-196q-33 162 -160 264t-320 102q-253 0 -405 -171t-152 -413t158 -410q158 -169 426 -169q147 0 274 87q126 87 171 220h204q-55 -207 -238 -341t-433 -134z" />
    <glyph glyph-name="D" unicode="D" horiz-adv-x="1427" 
d="M602 1266h-256v-1098h256q252 0 402 164t149 385q0 221 -149 385q-150 164 -402 164zM160 1434h442q172 0 316 -60t235 -162q191 -211 192 -494q1 -282 -192 -496q-92 -102 -235 -162t-316 -60h-442v1434z" />
    <glyph glyph-name="E" unicode="E" horiz-adv-x="1114" 
d="M965 1266h-619v-469h619v-168h-619v-461h619v-168h-805v1434h805v-168z" />
    <glyph glyph-name="F" unicode="F" horiz-adv-x="1101" 
d="M965 1266h-619v-512h619v-168h-619v-586h-186v1434h805v-168z" />
    <glyph glyph-name="G" unicode="G" horiz-adv-x="1712" 
d="M969 522v168h690v-168h-154q-43 -256 -219 -406t-467 -149q-172 1 -313 63q-140 62 -232 166q-190 216 -190 521t204 527t531 222q238 0 406 -125t194 -307h-188q-29 113 -142 189q-114 76 -270 75q-245 0 -395 -172t-150 -412t150 -409q150 -170 418 -170q202 0 322 109
t143 278h-338z" />
    <glyph glyph-name="H" unicode="H" horiz-adv-x="1359" 
d="M1014 0v629h-668v-629h-186v1434h186v-637h668v637h186v-1434h-186z" />
    <glyph glyph-name="I" unicode="I" horiz-adv-x="512" 
d="M160 0v1434h192v-1434h-192z" />
    <glyph glyph-name="J" unicode="J" horiz-adv-x="1097" 
d="M952 1434v-979q0 -215 -124 -351t-334 -137q-210 0 -338 137q-127 137 -127 351h186q0 -143 76 -231t203 -89q128 0 200 87t72 233v979h186z" />
    <glyph glyph-name="K" unicode="K" horiz-adv-x="1208" 
d="M346 0h-186v1434h186v-652l602 652h236l-656 -717l656 -717h-236l-602 651v-651z" />
    <glyph glyph-name="L" unicode="L" horiz-adv-x="870" 
d="M346 168h469v-168h-655v1434h186v-1266z" />
    <glyph glyph-name="M" unicode="M" horiz-adv-x="1662" 
d="M1503 1434v-1434h-188v999l-412 -999h-143l-414 999v-999h-186v1434h180l491 -1147l492 1147h180z" />
    <glyph glyph-name="N" unicode="N" horiz-adv-x="1357" 
d="M1012 1434h186v-1434h-207l-645 1108v-1108h-186v1434h207l645 -1108v1108z" />
    <glyph glyph-name="O" unicode="O" horiz-adv-x="1644" 
d="M822 135q244 0 394 173t150 409q0 237 -151 409t-393 172t-394 -172q-150 -172 -150 -408t151 -410q150 -173 393 -173zM823 -33q-331 0 -535 222q-204 221 -204 527t204 528t536 222t535 -222q204 -222 204 -527q0 -197 -87 -366q-88 -169 -260 -277t-393 -107z" />
    <glyph glyph-name="P" unicode="P" horiz-adv-x="1220" 
d="M664 627q137 0 221 92t84 226t-85 227t-220 94h-318v-639h318zM160 0v1434h504q219 0 355 -142t136 -347q0 -204 -136 -346t-355 -142h-318v-457h-186z" />
    <glyph glyph-name="Q" unicode="Q" horiz-adv-x="1644" 
d="M822 135q244 0 394 173t150 409q0 237 -151 409t-393 172t-394 -172q-150 -172 -150 -408t151 -410q150 -173 393 -173zM1563 717q1 -258 -147 -457t-392 -262l127 -178l-166 -82l-164 229q-333 2 -535 223q-202 220 -202 526t204 528t536 222t535 -222
q204 -222 204 -527z" />
    <glyph glyph-name="R" unicode="R" horiz-adv-x="1241" 
d="M664 627q137 0 221 92t84 226t-85 227t-220 94h-318v-639h318zM160 0v1434h504q219 0 355 -142t136 -346q0 -158 -86 -282t-231 -177l301 -487h-213l-285 457h-295v-457h-186z" />
    <glyph glyph-name="S" unicode="S" horiz-adv-x="1169" 
d="M92 457h187q0 -147 88 -235t225 -87q137 0 216 67t79 177q0 161 -174 227q-37 14 -117 39t-132 44t-124 57t-108 79t-62 108q-27 67 -27 150q0 171 126 277t322 106q195 0 321 -120t128 -318h-186q-2 123 -72 197q-70 73 -188 73t-192 -58q-72 -58 -72 -160t68 -153
q68 -52 178 -86q108 -35 157 -53t124 -57t115 -80t70 -107t31 -145q0 -205 -136 -319t-349 -113q-213 0 -355 133q-141 134 -141 357z" />
    <glyph glyph-name="T" unicode="T" horiz-adv-x="978" 
d="M395 0v1266h-370v168h929v-168h-372v-1266h-187z" />
    <glyph glyph-name="U" unicode="U" horiz-adv-x="1288" 
d="M145 465v969h187v-969q0 -137 86 -233t225 -97q139 0 226 96t87 234v969h187v-969q0 -209 -138 -353q-139 -144 -361 -144t-360 144t-139 353z" />
    <glyph glyph-name="V" unicode="V" horiz-adv-x="1153" 
d="M1145 1434l-500 -1434h-135l-502 1434h197l373 -1127l370 1127h197z" />
    <glyph glyph-name="W" unicode="W" horiz-adv-x="1974" 
d="M1335 0l-348 1110l-346 -1110h-139l-490 1434h197l360 -1110l349 1110h141l348 -1110l360 1110h197l-491 -1434h-138z" />
    <glyph glyph-name="X" unicode="X" horiz-adv-x="1122" 
d="M561 879l330 555h213l-436 -717l436 -717h-213l-330 555l-330 -555h-211l435 717l-435 717h211z" />
    <glyph glyph-name="Y" unicode="Y" horiz-adv-x="1210" 
d="M1200 1434l-721 -1434h-205l287 569l-541 865h218l419 -670l338 670h205z" />
    <glyph glyph-name="Z" unicode="Z" 
d="M72 1266v168h1067l-797 -1266h803v-168h-1116l796 1266h-753z" />
    <glyph glyph-name="underscore" unicode="_" horiz-adv-x="602" 
d="M541 664v-160h-480v160h480z" />
    <glyph glyph-name="a" unicode="a" horiz-adv-x="1222" 
d="M260 465q0 -137 87 -233t226 -95q139 0 227 95q87 94 87 232t-87 234q-86 96 -226 96t-227 -96t-87 -233zM887 930h176v-930h-176v162q-45 -84 -134 -134t-192 -51q-209 -1 -343 143t-134 346t134 345t343 143q101 0 191 -50t135 -134v160z" />
    <glyph glyph-name="b" unicode="b" horiz-adv-x="1226" 
d="M338 465q0 -137 87 -233t226 -95q139 0 226 95q86 94 86 232t-86 234q-85 96 -225 96t-227 -96t-87 -233zM338 0h-178v1434h178v-664q45 84 133 134t191 50q211 0 345 -143t134 -346t-134 -345t-345 -143q-102 1 -190 51t-134 134v-162z" />
    <glyph glyph-name="c" unicode="c" horiz-adv-x="1083" 
d="M555 795q-137 1 -213 -95t-76 -236t76 -234t223 -93q203 0 250 182h178q-23 -153 -135 -247t-316 -94q-206 0 -330 142q-124 144 -124 345t124 345t336 144t320 -105t123 -257h-178q-25 203 -258 203z" />
    <glyph glyph-name="d" unicode="d" horiz-adv-x="1222" 
d="M260 465q0 -137 87 -233t226 -95q139 0 227 95q87 94 87 232t-87 234q-86 96 -226 96t-227 -96t-87 -233zM887 0v162q-45 -84 -134 -134t-192 -51q-209 -1 -343 143t-134 346t134 345t343 143q101 0 191 -50t135 -134v664h176v-1434h-176z" />
    <glyph glyph-name="e" unicode="e" horiz-adv-x="1075" 
d="M553 127q182 0 235 147h181q-25 -125 -137 -211t-279 -86q-225 -1 -345 137t-120 353t122 351t320 136t323 -120q124 -120 124 -299q0 -66 -8 -117h-705q6 -131 76 -211t213 -80zM805 553q1 119 -73 191t-193 73q-119 0 -195 -71t-78 -193h539z" />
    <glyph glyph-name="f" unicode="f" horiz-adv-x="710" 
d="M688 1270q-54 16 -114 16t-93 -20q-59 -36 -59 -156v-180h266v-150h-266v-780h-178v780h-201v150h201v162q0 96 24 166t55 105q74 83 238 83q82 0 127 -25v-151z" />
    <glyph glyph-name="g" unicode="g" horiz-adv-x="1218" 
d="M1063 930v-989q0 -465 -496 -465q-223 0 -342 116t-129 289h180q8 -106 81 -177t210 -71q319 0 320 308v221q-45 -84 -134 -134t-192 -51q-209 -1 -343 143t-134 346t134 345t343 143q101 0 191 -50t135 -134v160h176zM887 464q1 138 -87 234t-227 97q-139 -1 -226 -97
t-87 -233t87 -233t226 -95q139 0 227 95q87 94 87 232z" />
    <glyph glyph-name="h" unicode="h" 
d="M666 954q350 0 350 -405v-549h-178v494q0 303 -236 303q-128 0 -196 -92t-68 -226v-479h-178v1434h178v-668q43 88 128 138t200 50z" />
    <glyph glyph-name="i" unicode="i" horiz-adv-x="497" 
d="M106 1283q0 58 42 101t100 43t102 -43q43 -43 43 -101t-43 -100t-102 -42t-101 42q-41 42 -41 100zM160 0v930h178v-930h-178z" />
    <glyph glyph-name="j" unicode="j" horiz-adv-x="497" 
d="M106 1283q0 58 42 101t102 43t101 -43q42 -43 42 -102t-42 -100t-102 -41t-102 42q-41 42 -41 100zM338 930v-1180q0 -141 -62 -207q-62 -65 -154 -65q-93 0 -147 24v158q51 -12 91 -12q94 0 94 129v1153h178z" />
    <glyph glyph-name="k" unicode="k" horiz-adv-x="976" 
d="M338 0h-178v1434h178v-928l389 424h225l-424 -465l424 -465h-225l-389 422v-422z" />
    <glyph glyph-name="l" unicode="l" horiz-adv-x="497" 
d="M160 0v1434h178v-1434h-178z" />
    <glyph glyph-name="m" unicode="m" horiz-adv-x="1687" 
d="M1542 0h-178v535q0 262 -197 262q-107 0 -167 -82t-60 -242v-473h-178v524q0 272 -195 273q-105 0 -167 -83t-62 -241v-473h-178v930h178v-166q27 82 101 136q75 54 173 54q242 0 299 -198q31 84 113 141t186 57q332 0 332 -366v-588z" />
    <glyph glyph-name="n" unicode="n" 
d="M666 954q350 0 350 -405v-549h-178v494q0 303 -236 303q-128 0 -196 -92t-68 -226v-479h-178v930h178v-164q43 88 128 138t200 50z" />
    <glyph glyph-name="o" unicode="o" horiz-adv-x="1146" 
d="M260 465q0 -137 87 -233t226 -95q139 0 227 95q87 94 87 232t-87 234q-86 96 -226 96t-227 -96t-87 -233zM573 954q217 0 353 -142t137 -346q-1 -204 -137 -346t-353 -143q-217 1 -353 143t-136 346t136 346t353 142z" />
    <glyph glyph-name="p" unicode="p" horiz-adv-x="1226" 
d="M963 464q-1 138 -87 234t-225 97q-139 -1 -226 -97t-87 -233t87 -233t226 -95q139 0 226 95q86 94 86 232zM338 930v-160q45 84 133 134t191 50q211 0 345 -143t134 -346t-134 -345t-345 -143q-102 1 -190 51t-134 134v-666h-178v1434h178z" />
    <glyph glyph-name="q" unicode="q" horiz-adv-x="1226" 
d="M889 464q1 138 -87 234t-227 97q-139 -1 -225 -97t-86 -233t86 -233t225 -95q139 0 227 95q87 94 87 232zM889 930h178v-1434h-178v666q-45 -84 -133 -134t-191 -51q-211 1 -345 143t-134 345t134 346t345 143q103 0 191 -50t133 -134v160z" />
    <glyph glyph-name="r" unicode="r" horiz-adv-x="747" 
d="M647 776q-153 0 -231 -98t-78 -270v-408h-178v930h178v-182q37 86 124 141t185 55q53 0 88 -14v-164q-47 10 -88 10z" />
    <glyph glyph-name="s" unicode="s" horiz-adv-x="925" 
d="M831 256q0 -135 -100 -207t-264 -72q-165 -1 -275 87t-110 249h174q0 -195 219 -194q186 0 187 133q0 69 -79 104q-47 20 -115 41q-222 66 -288 120q-67 54 -67 175t98 192q98 70 250 70t254 -88t102 -225h-172q0 82 -48 126t-132 44t-132 -34t-48 -97t68 -94
q46 -21 94 -34q128 -35 229 -79q102 -43 135 -109q20 -44 20 -108z" />
    <glyph glyph-name="t" unicode="t" horiz-adv-x="696" 
d="M530 -12q-66 0 -100 4q-96 12 -147 75q-70 82 -70 246v467h-172v150h172v313h178v-313h242v-150h-242v-428q0 -125 38 -164q56 -57 237 -30v-158q-70 -12 -136 -12z" />
    <glyph glyph-name="u" unicode="u" 
d="M819 930h178v-930h-178v166q-43 -86 -128 -137t-199 -52q-193 0 -281 121q-70 94 -70 283v549h178v-492q0 -303 234 -303q129 0 198 91t68 227v477z" />
    <glyph glyph-name="v" unicode="v" horiz-adv-x="987" 
d="M8 930h193l291 -676l294 676h193l-426 -930h-123z" />
    <glyph glyph-name="w" unicode="w" horiz-adv-x="1503" 
d="M1012 0l-260 735l-260 -735h-123l-361 930h191l231 -656l234 656h176l231 -656l234 656h190l-360 -930h-123z" />
    <glyph glyph-name="x" unicode="x" horiz-adv-x="901" 
d="M553 469l315 -469h-204l-213 330l-213 -330h-205l315 469l-311 461h205l209 -324l208 324h205z" />
    <glyph glyph-name="y" unicode="y" horiz-adv-x="1173" 
d="M578 -524q-201 0 -316 102t-119 301h181q16 -252 258 -252q128 1 194 63t66 214v262q-43 -88 -127 -138t-199 -51q-193 0 -283 119q-70 94 -69 291v543h178v-488q0 -147 53 -227t183 -80t196 91q68 91 68 227v477h178v-1026q0 -428 -442 -428z" />
    <glyph glyph-name="z" unicode="z" horiz-adv-x="888" 
d="M66 930h782l-498 -770h500v-160h-801l498 772h-481v158z" />
    <glyph glyph-name="Agrave" unicode="&#xc0;" horiz-adv-x="1144" 
d="M805 389l-232 739l-235 -739h467zM1135 0h-197l-76 219h-581l-74 -219h-197l494 1434h135z" />
    <glyph glyph-name="Aacute" unicode="&#xc1;" horiz-adv-x="1144" 
d="M805 389l-232 739l-235 -739h467zM1135 0h-197l-76 219h-581l-74 -219h-197l494 1434h135z" />
    <glyph glyph-name="Acircumflex" unicode="&#xc2;" horiz-adv-x="1144" 
d="M805 389l-232 739l-235 -739h467zM1135 0h-197l-76 219h-581l-74 -219h-197l494 1434h135z" />
    <glyph glyph-name="Atilde" unicode="&#xc3;" horiz-adv-x="1144" 
d="M805 389l-232 739l-235 -739h467zM1135 0h-197l-76 219h-581l-74 -219h-197l494 1434h135z" />
    <glyph glyph-name="Adieresis" unicode="&#xc4;" horiz-adv-x="1144" 
d="M805 389l-232 739l-235 -739h467zM1135 0h-197l-76 219h-581l-74 -219h-197l494 1434h135z" />
    <glyph glyph-name="Aring" unicode="&#xc5;" horiz-adv-x="1144" 
d="M805 389l-232 739l-235 -739h467zM1135 0h-197l-76 219h-581l-74 -219h-197l494 1434h135z" />
    <glyph glyph-name="AE" unicode="&#xc6;" horiz-adv-x="2258" 
d="M2109 1266h-618v-469h618v-168h-618v-461h618v-168h-804v1434h804v-168zM805 389l-232 739l-235 -739h467zM1135 0h-197l-76 219h-581l-74 -219h-197l494 1434h135z" />
    <glyph glyph-name="Ccedilla" unicode="&#xc7;" horiz-adv-x="1587" 
d="M836 -33q-340 0 -546 219q-206 218 -206 528t201 531t512 221t489 -148t221 -386h-196q-33 162 -160 264t-320 102q-253 0 -405 -171t-152 -413t158 -410q158 -169 426 -169q147 0 274 87q126 87 171 220h204q-55 -207 -238 -341t-433 -134z" />
    <glyph glyph-name="Egrave" unicode="&#xc8;" horiz-adv-x="1114" 
d="M965 1266h-619v-469h619v-168h-619v-461h619v-168h-805v1434h805v-168z" />
    <glyph glyph-name="Eacute" unicode="&#xc9;" horiz-adv-x="1114" 
d="M965 1266h-619v-469h619v-168h-619v-461h619v-168h-805v1434h805v-168z" />
    <glyph glyph-name="Ecircumflex" unicode="&#xca;" horiz-adv-x="1114" 
d="M965 1266h-619v-469h619v-168h-619v-461h619v-168h-805v1434h805v-168z" />
    <glyph glyph-name="Edieresis" unicode="&#xcb;" horiz-adv-x="1114" 
d="M965 1266h-619v-469h619v-168h-619v-461h619v-168h-805v1434h805v-168z" />
    <glyph glyph-name="Igrave" unicode="&#xcc;" horiz-adv-x="512" 
d="M160 0v1434h192v-1434h-192z" />
    <glyph glyph-name="Iacute" unicode="&#xcd;" horiz-adv-x="512" 
d="M160 0v1434h192v-1434h-192z" />
    <glyph glyph-name="Icircumflex" unicode="&#xce;" horiz-adv-x="512" 
d="M160 0v1434h192v-1434h-192z" />
    <glyph glyph-name="Idieresis" unicode="&#xcf;" horiz-adv-x="512" 
d="M160 0v1434h192v-1434h-192z" />
    <glyph glyph-name="Eth" unicode="&#xd0;" horiz-adv-x="1427" 
d="M602 1266h-256v-1098h256q252 0 402 164t149 385q0 221 -149 385q-150 164 -402 164zM160 1434h442q172 0 316 -60t235 -162q191 -211 192 -494q1 -282 -192 -496q-92 -102 -235 -162t-316 -60h-442v1434z" />
    <glyph glyph-name="Ntilde" unicode="&#xd1;" horiz-adv-x="1357" 
d="M1012 1434h186v-1434h-207l-645 1108v-1108h-186v1434h207l645 -1108v1108z" />
    <glyph glyph-name="Ograve" unicode="&#xd2;" horiz-adv-x="1644" 
d="M822 135q244 0 394 173t150 409q0 237 -151 409t-393 172t-394 -172q-150 -172 -150 -408t151 -410q150 -173 393 -173zM823 -33q-331 0 -535 222q-204 221 -204 527t204 528t536 222t535 -222q204 -222 204 -527q0 -197 -87 -366q-88 -169 -260 -277t-393 -107z" />
    <glyph glyph-name="Oacute" unicode="&#xd3;" horiz-adv-x="1644" 
d="M822 135q244 0 394 173t150 409q0 237 -151 409t-393 172t-394 -172q-150 -172 -150 -408t151 -410q150 -173 393 -173zM823 -33q-331 0 -535 222q-204 221 -204 527t204 528t536 222t535 -222q204 -222 204 -527q0 -197 -87 -366q-88 -169 -260 -277t-393 -107z" />
    <glyph glyph-name="Ocircumflex" unicode="&#xd4;" horiz-adv-x="1644" 
d="M822 135q244 0 394 173t150 409q0 237 -151 409t-393 172t-394 -172q-150 -172 -150 -408t151 -410q150 -173 393 -173zM823 -33q-331 0 -535 222q-204 221 -204 527t204 528t536 222t535 -222q204 -222 204 -527q0 -197 -87 -366q-88 -169 -260 -277t-393 -107z" />
    <glyph glyph-name="Otilde" unicode="&#xd5;" horiz-adv-x="1644" 
d="M822 135q244 0 394 173t150 409q0 237 -151 409t-393 172t-394 -172q-150 -172 -150 -408t151 -410q150 -173 393 -173zM823 -33q-331 0 -535 222q-204 221 -204 527t204 528t536 222t535 -222q204 -222 204 -527q0 -197 -87 -366q-88 -169 -260 -277t-393 -107z" />
    <glyph glyph-name="Odieresis" unicode="&#xd6;" horiz-adv-x="1644" 
d="M822 135q244 0 394 173t150 409q0 237 -151 409t-393 172t-394 -172q-150 -172 -150 -408t151 -410q150 -173 393 -173zM823 -33q-331 0 -535 222q-204 221 -204 527t204 528t536 222t535 -222q204 -222 204 -527q0 -197 -87 -366q-88 -169 -260 -277t-393 -107z" />
    <glyph glyph-name="Oslash" unicode="&#xd8;" horiz-adv-x="1644" 
d="M822 135q244 0 394 173t150 409q0 237 -151 409t-393 172t-394 -172q-150 -172 -150 -408t151 -410q150 -173 393 -173zM823 -33q-331 0 -535 222q-204 221 -204 527t204 528t536 222t535 -222q204 -222 204 -527q0 -197 -87 -366q-88 -169 -260 -277t-393 -107z" />
    <glyph glyph-name="Ugrave" unicode="&#xd9;" horiz-adv-x="1288" 
d="M145 465v969h187v-969q0 -137 86 -233t225 -97q139 0 226 96t87 234v969h187v-969q0 -209 -138 -353q-139 -144 -361 -144t-360 144t-139 353z" />
    <glyph glyph-name="Uacute" unicode="&#xda;" horiz-adv-x="1288" 
d="M145 465v969h187v-969q0 -137 86 -233t225 -97q139 0 226 96t87 234v969h187v-969q0 -209 -138 -353q-139 -144 -361 -144t-360 144t-139 353z" />
    <glyph glyph-name="Ucircumflex" unicode="&#xdb;" horiz-adv-x="1288" 
d="M145 465v969h187v-969q0 -137 86 -233t225 -97q139 0 226 96t87 234v969h187v-969q0 -209 -138 -353q-139 -144 -361 -144t-360 144t-139 353z" />
    <glyph glyph-name="Udieresis" unicode="&#xdc;" horiz-adv-x="1288" 
d="M145 465v969h187v-969q0 -137 86 -233t225 -97q139 0 226 96t87 234v969h187v-969q0 -209 -138 -353q-139 -144 -361 -144t-360 144t-139 353z" />
    <glyph glyph-name="Yacute" unicode="&#xdd;" horiz-adv-x="1210" 
d="M1200 1434l-721 -1434h-205l287 569l-541 865h218l419 -670l338 670h205z" />
    <glyph glyph-name="Thorn" unicode="&#xde;" horiz-adv-x="1220" 
d="M664 627q137 0 221 92t84 226t-85 227t-220 94h-318v-639h318zM160 0v1434h504q219 0 355 -142t136 -347q0 -204 -136 -346t-355 -142h-318v-457h-186z" />
    <glyph glyph-name="germandbls" unicode="&#xdf;" horiz-adv-x="1851" 
d="M1757 256q0 -135 -100 -207t-264 -72q-164 -1 -275 87t-110 249h174q0 -195 219 -194q186 0 186 133q0 46 -27 72q-38 36 -213 87t-242 106q-67 54 -67 175t98 192q98 70 250 70t254 -88t103 -225h-172q0 82 -48 126q-49 44 -133 44t-132 -34t-48 -82t18 -71
q18 -24 41 -34q60 -26 106 -39q125 -35 227 -78t135 -109q20 -44 20 -108zM831 256q0 -135 -100 -207t-264 -72q-165 -1 -275 87t-110 249h174q0 -195 219 -194q186 0 187 133q0 69 -79 104q-47 20 -115 41q-222 66 -288 120q-67 54 -67 175t98 192q98 70 250 70t254 -88
t102 -225h-172q0 82 -48 126t-132 44t-132 -34t-48 -97t68 -94q46 -21 94 -34q128 -35 229 -79q102 -43 135 -109q20 -44 20 -108z" />
    <glyph glyph-name="agrave" unicode="&#xe0;" horiz-adv-x="1222" 
d="M260 465q0 -137 87 -233t226 -95q139 0 227 95q87 94 87 232t-87 234q-86 96 -226 96t-227 -96t-87 -233zM887 930h176v-930h-176v162q-45 -84 -134 -134t-192 -51q-209 -1 -343 143t-134 346t134 345t343 143q101 0 191 -50t135 -134v160z" />
    <glyph glyph-name="aacute" unicode="&#xe1;" horiz-adv-x="1222" 
d="M260 465q0 -137 87 -233t226 -95q139 0 227 95q87 94 87 232t-87 234q-86 96 -226 96t-227 -96t-87 -233zM887 930h176v-930h-176v162q-45 -84 -134 -134t-192 -51q-209 -1 -343 143t-134 346t134 345t343 143q101 0 191 -50t135 -134v160z" />
    <glyph glyph-name="acircumflex" unicode="&#xe2;" horiz-adv-x="1222" 
d="M260 465q0 -137 87 -233t226 -95q139 0 227 95q87 94 87 232t-87 234q-86 96 -226 96t-227 -96t-87 -233zM887 930h176v-930h-176v162q-45 -84 -134 -134t-192 -51q-209 -1 -343 143t-134 346t134 345t343 143q101 0 191 -50t135 -134v160z" />
    <glyph glyph-name="atilde" unicode="&#xe3;" horiz-adv-x="1222" 
d="M260 465q0 -137 87 -233t226 -95q139 0 227 95q87 94 87 232t-87 234q-86 96 -226 96t-227 -96t-87 -233zM887 930h176v-930h-176v162q-45 -84 -134 -134t-192 -51q-209 -1 -343 143t-134 346t134 345t343 143q101 0 191 -50t135 -134v160z" />
    <glyph glyph-name="adieresis" unicode="&#xe4;" horiz-adv-x="1222" 
d="M260 465q0 -137 87 -233t226 -95q139 0 227 95q87 94 87 232t-87 234q-86 96 -226 96t-227 -96t-87 -233zM887 930h176v-930h-176v162q-45 -84 -134 -134t-192 -51q-209 -1 -343 143t-134 346t134 345t343 143q101 0 191 -50t135 -134v160z" />
    <glyph glyph-name="aring" unicode="&#xe5;" horiz-adv-x="1222" 
d="M260 465q0 -137 87 -233t226 -95q139 0 227 95q87 94 87 232t-87 234q-86 96 -226 96t-227 -96t-87 -233zM887 930h176v-930h-176v162q-45 -84 -134 -134t-192 -51q-209 -1 -343 143t-134 346t134 345t343 143q101 0 191 -50t135 -134v160z" />
    <glyph glyph-name="ae" unicode="&#xe6;" horiz-adv-x="2297" 
d="M1776 127q182 0 235 147h180q-25 -125 -137 -211t-278 -86q-225 -1 -345 137t-120 353t122 351t320 136t323 -120q124 -121 124 -299q-1 -66 -9 -117h-704q6 -131 76 -211t213 -80zM2028 553q0 119 -74 191t-193 73q-119 0 -195 -71t-77 -193h539zM260 465
q0 -137 87 -233t226 -95q139 0 227 95q87 94 87 232t-87 234q-86 96 -226 96t-227 -96t-87 -233zM887 930h176v-930h-176v162q-45 -84 -134 -134t-192 -51q-209 -1 -343 143t-134 346t134 345t343 143q101 0 191 -50t135 -134v160z" />
    <glyph glyph-name="ccedilla" unicode="&#xe7;" horiz-adv-x="1083" 
d="M555 795q-137 1 -213 -95t-76 -236t76 -234t223 -93q203 0 250 182h178q-23 -153 -135 -247t-316 -94q-206 0 -330 142q-124 144 -124 345t124 345t336 144t320 -105t123 -257h-178q-25 203 -258 203z" />
    <glyph glyph-name="egrave" unicode="&#xe8;" horiz-adv-x="1075" 
d="M553 127q182 0 235 147h181q-25 -125 -137 -211t-279 -86q-225 -1 -345 137t-120 353t122 351t320 136t323 -120q124 -120 124 -299q0 -66 -8 -117h-705q6 -131 76 -211t213 -80zM805 553q1 119 -73 191t-193 73q-119 0 -195 -71t-78 -193h539z" />
    <glyph glyph-name="eacute" unicode="&#xe9;" horiz-adv-x="1075" 
d="M553 127q182 0 235 147h181q-25 -125 -137 -211t-279 -86q-225 -1 -345 137t-120 353t122 351t320 136t323 -120q124 -120 124 -299q0 -66 -8 -117h-705q6 -131 76 -211t213 -80zM805 553q1 119 -73 191t-193 73q-119 0 -195 -71t-78 -193h539z" />
    <glyph glyph-name="ecircumflex" unicode="&#xea;" horiz-adv-x="1075" 
d="M553 127q182 0 235 147h181q-25 -125 -137 -211t-279 -86q-225 -1 -345 137t-120 353t122 351t320 136t323 -120q124 -120 124 -299q0 -66 -8 -117h-705q6 -131 76 -211t213 -80zM805 553q1 119 -73 191t-193 73q-119 0 -195 -71t-78 -193h539z" />
    <glyph glyph-name="edieresis" unicode="&#xeb;" horiz-adv-x="1075" 
d="M553 127q182 0 235 147h181q-25 -125 -137 -211t-279 -86q-225 -1 -345 137t-120 353t122 351t320 136t323 -120q124 -120 124 -299q0 -66 -8 -117h-705q6 -131 76 -211t213 -80zM805 553q1 119 -73 191t-193 73q-119 0 -195 -71t-78 -193h539z" />
    <glyph glyph-name="igrave" unicode="&#xec;" horiz-adv-x="497" 
d="M106 1283q0 58 42 101t100 43t102 -43q43 -43 43 -101t-43 -100t-102 -42t-101 42q-41 42 -41 100zM160 0v930h178v-930h-178z" />
    <glyph glyph-name="iacute" unicode="&#xed;" horiz-adv-x="497" 
d="M106 1283q0 58 42 101t100 43t102 -43q43 -43 43 -101t-43 -100t-102 -42t-101 42q-41 42 -41 100zM160 0v930h178v-930h-178z" />
    <glyph glyph-name="icircumflex" unicode="&#xee;" horiz-adv-x="497" 
d="M106 1283q0 58 42 101t100 43t102 -43q43 -43 43 -101t-43 -100t-102 -42t-101 42q-41 42 -41 100zM160 0v930h178v-930h-178z" />
    <glyph glyph-name="idieresis" unicode="&#xef;" horiz-adv-x="497" 
d="M106 1283q0 58 42 101t100 43t102 -43q43 -43 43 -101t-43 -100t-102 -42t-101 42q-41 42 -41 100zM160 0v930h178v-930h-178z" />
    <glyph glyph-name="ntilde" unicode="&#xf1;" 
d="M666 954q350 0 350 -405v-549h-178v494q0 303 -236 303q-128 0 -196 -92t-68 -226v-479h-178v930h178v-164q43 88 128 138t200 50z" />
    <glyph glyph-name="ograve" unicode="&#xf2;" horiz-adv-x="1146" 
d="M260 465q0 -137 87 -233t226 -95q139 0 227 95q87 94 87 232t-87 234q-86 96 -226 96t-227 -96t-87 -233zM573 954q217 0 353 -142t137 -346q-1 -204 -137 -346t-353 -143q-217 1 -353 143t-136 346t136 346t353 142z" />
    <glyph glyph-name="oacute" unicode="&#xf3;" horiz-adv-x="1146" 
d="M260 465q0 -137 87 -233t226 -95q139 0 227 95q87 94 87 232t-87 234q-86 96 -226 96t-227 -96t-87 -233zM573 954q217 0 353 -142t137 -346q-1 -204 -137 -346t-353 -143q-217 1 -353 143t-136 346t136 346t353 142z" />
    <glyph glyph-name="ocircumflex" unicode="&#xf4;" horiz-adv-x="1146" 
d="M260 465q0 -137 87 -233t226 -95q139 0 227 95q87 94 87 232t-87 234q-86 96 -226 96t-227 -96t-87 -233zM573 954q217 0 353 -142t137 -346q-1 -204 -137 -346t-353 -143q-217 1 -353 143t-136 346t136 346t353 142z" />
    <glyph glyph-name="otilde" unicode="&#xf5;" horiz-adv-x="1146" 
d="M260 465q0 -137 87 -233t226 -95q139 0 227 95q87 94 87 232t-87 234q-86 96 -226 96t-227 -96t-87 -233zM573 954q217 0 353 -142t137 -346q-1 -204 -137 -346t-353 -143q-217 1 -353 143t-136 346t136 346t353 142z" />
    <glyph glyph-name="odieresis" unicode="&#xf6;" horiz-adv-x="1146" 
d="M260 465q0 -137 87 -233t226 -95q139 0 227 95q87 94 87 232t-87 234q-86 96 -226 96t-227 -96t-87 -233zM573 954q217 0 353 -142t137 -346q-1 -204 -137 -346t-353 -143q-217 1 -353 143t-136 346t136 346t353 142z" />
    <glyph glyph-name="oslash" unicode="&#xf8;" horiz-adv-x="1146" 
d="M260 465q0 -137 87 -233t226 -95q139 0 227 95q87 94 87 232t-87 234q-86 96 -226 96t-227 -96t-87 -233zM573 954q217 0 353 -142t137 -346q-1 -204 -137 -346t-353 -143q-217 1 -353 143t-136 346t136 346t353 142z" />
    <glyph glyph-name="ugrave" unicode="&#xf9;" 
d="M819 930h178v-930h-178v166q-43 -86 -128 -137t-199 -52q-193 0 -281 121q-70 94 -70 283v549h178v-492q0 -303 234 -303q129 0 198 91t68 227v477z" />
    <glyph glyph-name="uacute" unicode="&#xfa;" 
d="M819 930h178v-930h-178v166q-43 -86 -128 -137t-199 -52q-193 0 -281 121q-70 94 -70 283v549h178v-492q0 -303 234 -303q129 0 198 91t68 227v477z" />
    <glyph glyph-name="ucircumflex" unicode="&#xfb;" 
d="M819 930h178v-930h-178v166q-43 -86 -128 -137t-199 -52q-193 0 -281 121q-70 94 -70 283v549h178v-492q0 -303 234 -303q129 0 198 91t68 227v477z" />
    <glyph glyph-name="udieresis" unicode="&#xfc;" 
d="M819 930h178v-930h-178v166q-43 -86 -128 -137t-199 -52q-193 0 -281 121q-70 94 -70 283v549h178v-492q0 -303 234 -303q129 0 198 91t68 227v477z" />
    <glyph glyph-name="yacute" unicode="&#xfd;" horiz-adv-x="1173" 
d="M578 -524q-201 0 -316 102t-119 301h181q16 -252 258 -252q128 1 194 63t66 214v262q-43 -88 -127 -138t-199 -51q-193 0 -283 119q-70 94 -69 291v543h178v-488q0 -147 53 -227t183 -80t196 91q68 91 68 227v477h178v-1026q0 -428 -442 -428z" />
    <glyph glyph-name="thorn" unicode="&#xfe;" horiz-adv-x="1226" 
d="M963 464q-1 138 -87 234t-225 97q-139 -1 -226 -97t-87 -233t87 -233t226 -95q139 0 226 95q86 94 86 232zM338 930v-160q45 84 133 134t191 50q211 0 345 -143t134 -346t-134 -345t-345 -143q-102 1 -190 51t-134 134v-666h-178v1434h178z" />
    <glyph glyph-name="ydieresis" unicode="&#xff;" horiz-adv-x="1173" 
d="M578 -524q-201 0 -316 102t-119 301h181q16 -252 258 -252q128 1 194 63t66 214v262q-43 -88 -127 -138t-199 -51q-193 0 -283 119q-70 94 -69 291v543h178v-488q0 -147 53 -227t183 -80t196 91q68 91 68 227v477h178v-1026q0 -428 -442 -428z" />
    <glyph glyph-name="Amacron" unicode="&#x100;" horiz-adv-x="1144" 
d="M805 389l-232 739l-235 -739h467zM1135 0h-197l-76 219h-581l-74 -219h-197l494 1434h135z" />
    <glyph glyph-name="amacron" unicode="&#x101;" horiz-adv-x="1222" 
d="M260 465q0 -137 87 -233t226 -95q139 0 227 95q87 94 87 232t-87 234q-86 96 -226 96t-227 -96t-87 -233zM887 930h176v-930h-176v162q-45 -84 -134 -134t-192 -51q-209 -1 -343 143t-134 346t134 345t343 143q101 0 191 -50t135 -134v160z" />
    <glyph glyph-name="Abreve" unicode="&#x102;" horiz-adv-x="1144" 
d="M805 389l-232 739l-235 -739h467zM1135 0h-197l-76 219h-581l-74 -219h-197l494 1434h135z" />
    <glyph glyph-name="abreve" unicode="&#x103;" horiz-adv-x="1222" 
d="M260 465q0 -137 87 -233t226 -95q139 0 227 95q87 94 87 232t-87 234q-86 96 -226 96t-227 -96t-87 -233zM887 930h176v-930h-176v162q-45 -84 -134 -134t-192 -51q-209 -1 -343 143t-134 346t134 345t343 143q101 0 191 -50t135 -134v160z" />
    <glyph glyph-name="Aogonek" unicode="&#x104;" horiz-adv-x="1144" 
d="M805 389l-232 739l-235 -739h467zM1135 0h-197l-76 219h-581l-74 -219h-197l494 1434h135z" />
    <glyph glyph-name="aogonek" unicode="&#x105;" horiz-adv-x="1222" 
d="M260 465q0 -137 87 -233t226 -95q139 0 227 95q87 94 87 232t-87 234q-86 96 -226 96t-227 -96t-87 -233zM887 930h176v-930h-176v162q-45 -84 -134 -134t-192 -51q-209 -1 -343 143t-134 346t134 345t343 143q101 0 191 -50t135 -134v160z" />
    <glyph glyph-name="Cacute" unicode="&#x106;" horiz-adv-x="1587" 
d="M836 -33q-340 0 -546 219q-206 218 -206 528t201 531t512 221t489 -148t221 -386h-196q-33 162 -160 264t-320 102q-253 0 -405 -171t-152 -413t158 -410q158 -169 426 -169q147 0 274 87q126 87 171 220h204q-55 -207 -238 -341t-433 -134z" />
    <glyph glyph-name="cacute" unicode="&#x107;" horiz-adv-x="1083" 
d="M555 795q-137 1 -213 -95t-76 -236t76 -234t223 -93q203 0 250 182h178q-23 -153 -135 -247t-316 -94q-206 0 -330 142q-124 144 -124 345t124 345t336 144t320 -105t123 -257h-178q-25 203 -258 203z" />
    <glyph glyph-name="Ccircumflex" unicode="&#x108;" horiz-adv-x="1587" 
d="M836 -33q-340 0 -546 219q-206 218 -206 528t201 531t512 221t489 -148t221 -386h-196q-33 162 -160 264t-320 102q-253 0 -405 -171t-152 -413t158 -410q158 -169 426 -169q147 0 274 87q126 87 171 220h204q-55 -207 -238 -341t-433 -134z" />
    <glyph glyph-name="ccircumflex" unicode="&#x109;" horiz-adv-x="1083" 
d="M555 795q-137 1 -213 -95t-76 -236t76 -234t223 -93q203 0 250 182h178q-23 -153 -135 -247t-316 -94q-206 0 -330 142q-124 144 -124 345t124 345t336 144t320 -105t123 -257h-178q-25 203 -258 203z" />
    <glyph glyph-name="Cdotaccent" unicode="&#x10a;" horiz-adv-x="1587" 
d="M836 -33q-340 0 -546 219q-206 218 -206 528t201 531t512 221t489 -148t221 -386h-196q-33 162 -160 264t-320 102q-253 0 -405 -171t-152 -413t158 -410q158 -169 426 -169q147 0 274 87q126 87 171 220h204q-55 -207 -238 -341t-433 -134z" />
    <glyph glyph-name="cdotaccent" unicode="&#x10b;" horiz-adv-x="1083" 
d="M555 795q-137 1 -213 -95t-76 -236t76 -234t223 -93q203 0 250 182h178q-23 -153 -135 -247t-316 -94q-206 0 -330 142q-124 144 -124 345t124 345t336 144t320 -105t123 -257h-178q-25 203 -258 203z" />
    <glyph glyph-name="Ccaron" unicode="&#x10c;" horiz-adv-x="1587" 
d="M836 -33q-340 0 -546 219q-206 218 -206 528t201 531t512 221t489 -148t221 -386h-196q-33 162 -160 264t-320 102q-253 0 -405 -171t-152 -413t158 -410q158 -169 426 -169q147 0 274 87q126 87 171 220h204q-55 -207 -238 -341t-433 -134z" />
    <glyph glyph-name="ccaron" unicode="&#x10d;" horiz-adv-x="1083" 
d="M555 795q-137 1 -213 -95t-76 -236t76 -234t223 -93q203 0 250 182h178q-23 -153 -135 -247t-316 -94q-206 0 -330 142q-124 144 -124 345t124 345t336 144t320 -105t123 -257h-178q-25 203 -258 203z" />
    <glyph glyph-name="Dcaron" unicode="&#x10e;" horiz-adv-x="1427" 
d="M602 1266h-256v-1098h256q252 0 402 164t149 385q0 221 -149 385q-150 164 -402 164zM160 1434h442q172 0 316 -60t235 -162q191 -211 192 -494q1 -282 -192 -496q-92 -102 -235 -162t-316 -60h-442v1434z" />
    <glyph glyph-name="dcaron" unicode="&#x10f;" horiz-adv-x="1222" 
d="M260 465q0 -137 87 -233t226 -95q139 0 227 95q87 94 87 232t-87 234q-86 96 -226 96t-227 -96t-87 -233zM887 0v162q-45 -84 -134 -134t-192 -51q-209 -1 -343 143t-134 346t134 345t343 143q101 0 191 -50t135 -134v664h176v-1434h-176z" />
    <glyph glyph-name="Dcroat" unicode="&#x110;" horiz-adv-x="1427" 
d="M602 1266h-256v-1098h256q252 0 402 164t149 385q0 221 -149 385q-150 164 -402 164zM160 1434h442q172 0 316 -60t235 -162q191 -211 192 -494q1 -282 -192 -496q-92 -102 -235 -162t-316 -60h-442v1434z" />
    <glyph glyph-name="dcroat" unicode="&#x111;" horiz-adv-x="1222" 
d="M260 465q0 -137 87 -233t226 -95q139 0 227 95q87 94 87 232t-87 234q-86 96 -226 96t-227 -96t-87 -233zM887 0v162q-45 -84 -134 -134t-192 -51q-209 -1 -343 143t-134 346t134 345t343 143q101 0 191 -50t135 -134v664h176v-1434h-176z" />
    <glyph glyph-name="Emacron" unicode="&#x112;" horiz-adv-x="1114" 
d="M965 1266h-619v-469h619v-168h-619v-461h619v-168h-805v1434h805v-168z" />
    <glyph glyph-name="emacron" unicode="&#x113;" horiz-adv-x="1075" 
d="M553 127q182 0 235 147h181q-25 -125 -137 -211t-279 -86q-225 -1 -345 137t-120 353t122 351t320 136t323 -120q124 -120 124 -299q0 -66 -8 -117h-705q6 -131 76 -211t213 -80zM805 553q1 119 -73 191t-193 73q-119 0 -195 -71t-78 -193h539z" />
    <glyph glyph-name="Ebreve" unicode="&#x114;" horiz-adv-x="1114" 
d="M965 1266h-619v-469h619v-168h-619v-461h619v-168h-805v1434h805v-168z" />
    <glyph glyph-name="ebreve" unicode="&#x115;" horiz-adv-x="1075" 
d="M553 127q182 0 235 147h181q-25 -125 -137 -211t-279 -86q-225 -1 -345 137t-120 353t122 351t320 136t323 -120q124 -120 124 -299q0 -66 -8 -117h-705q6 -131 76 -211t213 -80zM805 553q1 119 -73 191t-193 73q-119 0 -195 -71t-78 -193h539z" />
    <glyph glyph-name="Edotaccent" unicode="&#x116;" horiz-adv-x="1114" 
d="M965 1266h-619v-469h619v-168h-619v-461h619v-168h-805v1434h805v-168z" />
    <glyph glyph-name="edotaccent" unicode="&#x117;" horiz-adv-x="1075" 
d="M553 127q182 0 235 147h181q-25 -125 -137 -211t-279 -86q-225 -1 -345 137t-120 353t122 351t320 136t323 -120q124 -120 124 -299q0 -66 -8 -117h-705q6 -131 76 -211t213 -80zM805 553q1 119 -73 191t-193 73q-119 0 -195 -71t-78 -193h539z" />
    <glyph glyph-name="Eogonek" unicode="&#x118;" horiz-adv-x="1114" 
d="M965 1266h-619v-469h619v-168h-619v-461h619v-168h-805v1434h805v-168z" />
    <glyph glyph-name="eogonek" unicode="&#x119;" horiz-adv-x="1075" 
d="M553 127q182 0 235 147h181q-25 -125 -137 -211t-279 -86q-225 -1 -345 137t-120 353t122 351t320 136t323 -120q124 -120 124 -299q0 -66 -8 -117h-705q6 -131 76 -211t213 -80zM805 553q1 119 -73 191t-193 73q-119 0 -195 -71t-78 -193h539z" />
    <glyph glyph-name="Ecaron" unicode="&#x11a;" horiz-adv-x="1114" 
d="M965 1266h-619v-469h619v-168h-619v-461h619v-168h-805v1434h805v-168z" />
    <glyph glyph-name="ecaron" unicode="&#x11b;" horiz-adv-x="1075" 
d="M553 127q182 0 235 147h181q-25 -125 -137 -211t-279 -86q-225 -1 -345 137t-120 353t122 351t320 136t323 -120q124 -120 124 -299q0 -66 -8 -117h-705q6 -131 76 -211t213 -80zM805 553q1 119 -73 191t-193 73q-119 0 -195 -71t-78 -193h539z" />
    <glyph glyph-name="Gcircumflex" unicode="&#x11c;" horiz-adv-x="1712" 
d="M969 522v168h690v-168h-154q-43 -256 -219 -406t-467 -149q-172 1 -313 63q-140 62 -232 166q-190 216 -190 521t204 527t531 222q238 0 406 -125t194 -307h-188q-29 113 -142 189q-114 76 -270 75q-245 0 -395 -172t-150 -412t150 -409q150 -170 418 -170q202 0 322 109
t143 278h-338z" />
    <glyph glyph-name="gcircumflex" unicode="&#x11d;" horiz-adv-x="1218" 
d="M1063 930v-989q0 -465 -496 -465q-223 0 -342 116t-129 289h180q8 -106 81 -177t210 -71q319 0 320 308v221q-45 -84 -134 -134t-192 -51q-209 -1 -343 143t-134 346t134 345t343 143q101 0 191 -50t135 -134v160h176zM887 464q1 138 -87 234t-227 97q-139 -1 -226 -97
t-87 -233t87 -233t226 -95q139 0 227 95q87 94 87 232z" />
    <glyph glyph-name="Gbreve" unicode="&#x11e;" horiz-adv-x="1712" 
d="M969 522v168h690v-168h-154q-43 -256 -219 -406t-467 -149q-172 1 -313 63q-140 62 -232 166q-190 216 -190 521t204 527t531 222q238 0 406 -125t194 -307h-188q-29 113 -142 189q-114 76 -270 75q-245 0 -395 -172t-150 -412t150 -409q150 -170 418 -170q202 0 322 109
t143 278h-338z" />
    <glyph glyph-name="gbreve" unicode="&#x11f;" horiz-adv-x="1218" 
d="M1063 930v-989q0 -465 -496 -465q-223 0 -342 116t-129 289h180q8 -106 81 -177t210 -71q319 0 320 308v221q-45 -84 -134 -134t-192 -51q-209 -1 -343 143t-134 346t134 345t343 143q101 0 191 -50t135 -134v160h176zM887 464q1 138 -87 234t-227 97q-139 -1 -226 -97
t-87 -233t87 -233t226 -95q139 0 227 95q87 94 87 232z" />
    <glyph glyph-name="Gdotaccent" unicode="&#x120;" horiz-adv-x="1712" 
d="M969 522v168h690v-168h-154q-43 -256 -219 -406t-467 -149q-172 1 -313 63q-140 62 -232 166q-190 216 -190 521t204 527t531 222q238 0 406 -125t194 -307h-188q-29 113 -142 189q-114 76 -270 75q-245 0 -395 -172t-150 -412t150 -409q150 -170 418 -170q202 0 322 109
t143 278h-338z" />
    <glyph glyph-name="gdotaccent" unicode="&#x121;" horiz-adv-x="1218" 
d="M1063 930v-989q0 -465 -496 -465q-223 0 -342 116t-129 289h180q8 -106 81 -177t210 -71q319 0 320 308v221q-45 -84 -134 -134t-192 -51q-209 -1 -343 143t-134 346t134 345t343 143q101 0 191 -50t135 -134v160h176zM887 464q1 138 -87 234t-227 97q-139 -1 -226 -97
t-87 -233t87 -233t226 -95q139 0 227 95q87 94 87 232z" />
    <glyph glyph-name="Gcommaaccent" unicode="&#x122;" horiz-adv-x="1712" 
d="M969 522v168h690v-168h-154q-43 -256 -219 -406t-467 -149q-172 1 -313 63q-140 62 -232 166q-190 216 -190 521t204 527t531 222q238 0 406 -125t194 -307h-188q-29 113 -142 189q-114 76 -270 75q-245 0 -395 -172t-150 -412t150 -409q150 -170 418 -170q202 0 322 109
t143 278h-338z" />
    <glyph glyph-name="gcommaaccent" unicode="&#x123;" horiz-adv-x="1218" 
d="M1063 930v-989q0 -465 -496 -465q-223 0 -342 116t-129 289h180q8 -106 81 -177t210 -71q319 0 320 308v221q-45 -84 -134 -134t-192 -51q-209 -1 -343 143t-134 346t134 345t343 143q101 0 191 -50t135 -134v160h176zM887 464q1 138 -87 234t-227 97q-139 -1 -226 -97
t-87 -233t87 -233t226 -95q139 0 227 95q87 94 87 232z" />
    <glyph glyph-name="Hcircumflex" unicode="&#x124;" horiz-adv-x="1359" 
d="M1014 0v629h-668v-629h-186v1434h186v-637h668v637h186v-1434h-186z" />
    <glyph glyph-name="hcircumflex" unicode="&#x125;" 
d="M666 954q350 0 350 -405v-549h-178v494q0 303 -236 303q-128 0 -196 -92t-68 -226v-479h-178v1434h178v-668q43 88 128 138t200 50z" />
    <glyph glyph-name="Hbar" unicode="&#x126;" horiz-adv-x="1359" 
d="M1014 0v629h-668v-629h-186v1434h186v-637h668v637h186v-1434h-186z" />
    <glyph glyph-name="hbar" unicode="&#x127;" 
d="M666 954q350 0 350 -405v-549h-178v494q0 303 -236 303q-128 0 -196 -92t-68 -226v-479h-178v1434h178v-668q43 88 128 138t200 50z" />
    <glyph glyph-name="Itilde" unicode="&#x128;" horiz-adv-x="512" 
d="M160 0v1434h192v-1434h-192z" />
    <glyph glyph-name="itilde" unicode="&#x129;" horiz-adv-x="497" 
d="M106 1283q0 58 42 101t100 43t102 -43q43 -43 43 -101t-43 -100t-102 -42t-101 42q-41 42 -41 100zM160 0v930h178v-930h-178z" />
    <glyph glyph-name="Imacron" unicode="&#x12a;" horiz-adv-x="512" 
d="M160 0v1434h192v-1434h-192z" />
    <glyph glyph-name="imacron" unicode="&#x12b;" horiz-adv-x="497" 
d="M106 1283q0 58 42 101t100 43t102 -43q43 -43 43 -101t-43 -100t-102 -42t-101 42q-41 42 -41 100zM160 0v930h178v-930h-178z" />
    <glyph glyph-name="Ibreve" unicode="&#x12c;" horiz-adv-x="512" 
d="M160 0v1434h192v-1434h-192z" />
    <glyph glyph-name="ibreve" unicode="&#x12d;" horiz-adv-x="497" 
d="M106 1283q0 58 42 101t100 43t102 -43q43 -43 43 -101t-43 -100t-102 -42t-101 42q-41 42 -41 100zM160 0v930h178v-930h-178z" />
    <glyph glyph-name="Iogonek" unicode="&#x12e;" horiz-adv-x="512" 
d="M160 0v1434h192v-1434h-192z" />
    <glyph glyph-name="iogonek" unicode="&#x12f;" horiz-adv-x="497" 
d="M106 1283q0 58 42 101t100 43t102 -43q43 -43 43 -101t-43 -100t-102 -42t-101 42q-41 42 -41 100zM160 0v930h178v-930h-178z" />
    <glyph glyph-name="Idotaccent" unicode="&#x130;" horiz-adv-x="512" 
d="M160 0v1434h192v-1434h-192z" />
    <glyph glyph-name="dotlessi" unicode="&#x131;" horiz-adv-x="497" 
d="M106 1283q0 58 42 101t100 43t102 -43q43 -43 43 -101t-43 -100t-102 -42t-101 42q-41 42 -41 100zM160 0v930h178v-930h-178z" />
    <glyph glyph-name="IJ" unicode="&#x132;" horiz-adv-x="1609" 
d="M1464 1434v-979q0 -215 -124 -351t-334 -137q-210 0 -338 137q-127 137 -127 351h186q0 -143 76 -231t203 -89q128 0 200 87t72 233v979h186zM160 0v1434h192v-1434h-192z" />
    <glyph glyph-name="ij" unicode="&#x133;" horiz-adv-x="995" 
d="M604 1283q0 58 42 101t101 43t101 -43t43 -102q0 -59 -42 -100q-41 -41 -101 -41t-102 42t-42 100zM836 930v-1180q0 -141 -62 -207q-62 -65 -154 -65q-94 0 -147 24v158q51 -12 90 -12q94 0 94 129v1153h179zM106 1283q0 58 42 101t100 43t102 -43q43 -43 43 -101
t-43 -100t-102 -42t-101 42q-41 42 -41 100zM160 0v930h178v-930h-178z" />
    <glyph glyph-name="Jcircumflex" unicode="&#x134;" horiz-adv-x="1097" 
d="M952 1434v-979q0 -215 -124 -351t-334 -137q-210 0 -338 137q-127 137 -127 351h186q0 -143 76 -231t203 -89q128 0 200 87t72 233v979h186z" />
    <glyph glyph-name="jcircumflex" unicode="&#x135;" horiz-adv-x="497" 
d="M106 1283q0 58 42 101t102 43t101 -43q42 -43 42 -102t-42 -100t-102 -41t-102 42q-41 42 -41 100zM338 930v-1180q0 -141 -62 -207q-62 -65 -154 -65q-93 0 -147 24v158q51 -12 91 -12q94 0 94 129v1153h178z" />
    <glyph glyph-name="Kcommaaccent" unicode="&#x136;" horiz-adv-x="1208" 
d="M346 0h-186v1434h186v-652l602 652h236l-656 -717l656 -717h-236l-602 651v-651z" />
    <glyph glyph-name="kcommaaccent" unicode="&#x137;" horiz-adv-x="976" 
d="M338 0h-178v1434h178v-928l389 424h225l-424 -465l424 -465h-225l-389 422v-422z" />
    <glyph glyph-name="kgreenlandic" unicode="&#x138;" horiz-adv-x="976" 
d="M338 0h-178v1434h178v-928l389 424h225l-424 -465l424 -465h-225l-389 422v-422z" />
    <glyph glyph-name="Lacute" unicode="&#x139;" horiz-adv-x="870" 
d="M346 168h469v-168h-655v1434h186v-1266z" />
    <glyph glyph-name="lacute" unicode="&#x13a;" horiz-adv-x="497" 
d="M160 0v1434h178v-1434h-178z" />
    <glyph glyph-name="Lcommaaccent" unicode="&#x13b;" horiz-adv-x="870" 
d="M346 168h469v-168h-655v1434h186v-1266z" />
    <glyph glyph-name="lcommaaccent" unicode="&#x13c;" horiz-adv-x="497" 
d="M160 0v1434h178v-1434h-178z" />
    <glyph glyph-name="Lcaron" unicode="&#x13d;" horiz-adv-x="870" 
d="M346 168h469v-168h-655v1434h186v-1266z" />
    <glyph glyph-name="lcaron" unicode="&#x13e;" horiz-adv-x="497" 
d="M160 0v1434h178v-1434h-178z" />
    <glyph glyph-name="Ldot" unicode="&#x13f;" horiz-adv-x="870" 
d="M346 168h469v-168h-655v1434h186v-1266z" />
    <glyph glyph-name="ldot" unicode="&#x140;" horiz-adv-x="497" 
d="M160 0v1434h178v-1434h-178z" />
    <glyph glyph-name="Lslash" unicode="&#x141;" horiz-adv-x="870" 
d="M346 168h469v-168h-655v1434h186v-1266z" />
    <glyph glyph-name="lslash" unicode="&#x142;" horiz-adv-x="497" 
d="M160 0v1434h178v-1434h-178z" />
    <glyph glyph-name="Nacute" unicode="&#x143;" horiz-adv-x="1357" 
d="M1012 1434h186v-1434h-207l-645 1108v-1108h-186v1434h207l645 -1108v1108z" />
    <glyph glyph-name="nacute" unicode="&#x144;" 
d="M666 954q350 0 350 -405v-549h-178v494q0 303 -236 303q-128 0 -196 -92t-68 -226v-479h-178v930h178v-164q43 88 128 138t200 50z" />
    <glyph glyph-name="Ncommaaccent" unicode="&#x145;" horiz-adv-x="1357" 
d="M1012 1434h186v-1434h-207l-645 1108v-1108h-186v1434h207l645 -1108v1108z" />
    <glyph glyph-name="ncommaaccent" unicode="&#x146;" 
d="M666 954q350 0 350 -405v-549h-178v494q0 303 -236 303q-128 0 -196 -92t-68 -226v-479h-178v930h178v-164q43 88 128 138t200 50z" />
    <glyph glyph-name="Ncaron" unicode="&#x147;" horiz-adv-x="1357" 
d="M1012 1434h186v-1434h-207l-645 1108v-1108h-186v1434h207l645 -1108v1108z" />
    <glyph glyph-name="ncaron" unicode="&#x148;" 
d="M666 954q350 0 350 -405v-549h-178v494q0 303 -236 303q-128 0 -196 -92t-68 -226v-479h-178v930h178v-164q43 88 128 138t200 50z" />
    <glyph glyph-name="napostrophe" unicode="&#x149;" 
d="M666 954q350 0 350 -405v-549h-178v494q0 303 -236 303q-128 0 -196 -92t-68 -226v-479h-178v930h178v-164q43 88 128 138t200 50z" />
    <glyph glyph-name="Eng" unicode="&#x14a;" horiz-adv-x="1357" 
d="M1012 1434h186v-1434h-207l-645 1108v-1108h-186v1434h207l645 -1108v1108z" />
    <glyph glyph-name="eng" unicode="&#x14b;" 
d="M666 954q350 0 350 -405v-549h-178v494q0 303 -236 303q-128 0 -196 -92t-68 -226v-479h-178v930h178v-164q43 88 128 138t200 50z" />
    <glyph glyph-name="Omacron" unicode="&#x14c;" horiz-adv-x="1644" 
d="M822 135q244 0 394 173t150 409q0 237 -151 409t-393 172t-394 -172q-150 -172 -150 -408t151 -410q150 -173 393 -173zM823 -33q-331 0 -535 222q-204 221 -204 527t204 528t536 222t535 -222q204 -222 204 -527q0 -197 -87 -366q-88 -169 -260 -277t-393 -107z" />
    <glyph glyph-name="omacron" unicode="&#x14d;" horiz-adv-x="1146" 
d="M260 465q0 -137 87 -233t226 -95q139 0 227 95q87 94 87 232t-87 234q-86 96 -226 96t-227 -96t-87 -233zM573 954q217 0 353 -142t137 -346q-1 -204 -137 -346t-353 -143q-217 1 -353 143t-136 346t136 346t353 142z" />
    <glyph glyph-name="Obreve" unicode="&#x14e;" horiz-adv-x="1644" 
d="M822 135q244 0 394 173t150 409q0 237 -151 409t-393 172t-394 -172q-150 -172 -150 -408t151 -410q150 -173 393 -173zM823 -33q-331 0 -535 222q-204 221 -204 527t204 528t536 222t535 -222q204 -222 204 -527q0 -197 -87 -366q-88 -169 -260 -277t-393 -107z" />
    <glyph glyph-name="obreve" unicode="&#x14f;" horiz-adv-x="1146" 
d="M260 465q0 -137 87 -233t226 -95q139 0 227 95q87 94 87 232t-87 234q-86 96 -226 96t-227 -96t-87 -233zM573 954q217 0 353 -142t137 -346q-1 -204 -137 -346t-353 -143q-217 1 -353 143t-136 346t136 346t353 142z" />
    <glyph glyph-name="Ohungarumlaut" unicode="&#x150;" horiz-adv-x="1644" 
d="M822 135q244 0 394 173t150 409q0 237 -151 409t-393 172t-394 -172q-150 -172 -150 -408t151 -410q150 -173 393 -173zM823 -33q-331 0 -535 222q-204 221 -204 527t204 528t536 222t535 -222q204 -222 204 -527q0 -197 -87 -366q-88 -169 -260 -277t-393 -107z" />
    <glyph glyph-name="ohungarumlaut" unicode="&#x151;" horiz-adv-x="1146" 
d="M260 465q0 -137 87 -233t226 -95q139 0 227 95q87 94 87 232t-87 234q-86 96 -226 96t-227 -96t-87 -233zM573 954q217 0 353 -142t137 -346q-1 -204 -137 -346t-353 -143q-217 1 -353 143t-136 346t136 346t353 142z" />
    <glyph glyph-name="OE" unicode="&#x152;" horiz-adv-x="2758" 
d="M2609 1266h-618v-469h618v-168h-618v-461h618v-168h-805v1434h805v-168zM822 135q244 0 394 173t150 409q0 237 -151 409t-393 172t-394 -172q-150 -172 -150 -408t151 -410q150 -173 393 -173zM823 -33q-331 0 -535 222q-204 221 -204 527t204 528t536 222t535 -222
q204 -222 204 -527q0 -197 -87 -366q-88 -169 -260 -277t-393 -107z" />
    <glyph glyph-name="oe" unicode="&#x153;" horiz-adv-x="2222" 
d="M1700 127q182 0 235 147h181q-25 -125 -137 -211t-279 -86q-225 -1 -345 137t-120 353t122 351q123 136 321 136t322 -120t124 -299q0 -66 -8 -117h-705q6 -131 76 -211t213 -80zM1952 553q0 119 -74 191t-192 73q-119 0 -195 -71t-78 -193h539zM260 465q0 -137 87 -233
t226 -95q139 0 227 95q87 94 87 232t-87 234q-86 96 -226 96t-227 -96t-87 -233zM573 954q217 0 353 -142t137 -346q-1 -204 -137 -346t-353 -143q-217 1 -353 143t-136 346t136 346t353 142z" />
    <glyph glyph-name="Racute" unicode="&#x154;" horiz-adv-x="1241" 
d="M664 627q137 0 221 92t84 226t-85 227t-220 94h-318v-639h318zM160 0v1434h504q219 0 355 -142t136 -346q0 -158 -86 -282t-231 -177l301 -487h-213l-285 457h-295v-457h-186z" />
    <glyph glyph-name="racute" unicode="&#x155;" horiz-adv-x="747" 
d="M647 776q-153 0 -231 -98t-78 -270v-408h-178v930h178v-182q37 86 124 141t185 55q53 0 88 -14v-164q-47 10 -88 10z" />
    <glyph glyph-name="Rcommaaccent" unicode="&#x156;" horiz-adv-x="1241" 
d="M664 627q137 0 221 92t84 226t-85 227t-220 94h-318v-639h318zM160 0v1434h504q219 0 355 -142t136 -346q0 -158 -86 -282t-231 -177l301 -487h-213l-285 457h-295v-457h-186z" />
    <glyph glyph-name="rcommaaccent" unicode="&#x157;" horiz-adv-x="747" 
d="M647 776q-153 0 -231 -98t-78 -270v-408h-178v930h178v-182q37 86 124 141t185 55q53 0 88 -14v-164q-47 10 -88 10z" />
    <glyph glyph-name="Rcaron" unicode="&#x158;" horiz-adv-x="1241" 
d="M664 627q137 0 221 92t84 226t-85 227t-220 94h-318v-639h318zM160 0v1434h504q219 0 355 -142t136 -346q0 -158 -86 -282t-231 -177l301 -487h-213l-285 457h-295v-457h-186z" />
    <glyph glyph-name="rcaron" unicode="&#x159;" horiz-adv-x="747" 
d="M647 776q-153 0 -231 -98t-78 -270v-408h-178v930h178v-182q37 86 124 141t185 55q53 0 88 -14v-164q-47 10 -88 10z" />
    <glyph glyph-name="Sacute" unicode="&#x15a;" horiz-adv-x="1169" 
d="M92 457h187q0 -147 88 -235t225 -87q137 0 216 67t79 177q0 161 -174 227q-37 14 -117 39t-132 44t-124 57t-108 79t-62 108q-27 67 -27 150q0 171 126 277t322 106q195 0 321 -120t128 -318h-186q-2 123 -72 197q-70 73 -188 73t-192 -58q-72 -58 -72 -160t68 -153
q68 -52 178 -86q108 -35 157 -53t124 -57t115 -80t70 -107t31 -145q0 -205 -136 -319t-349 -113q-213 0 -355 133q-141 134 -141 357z" />
    <glyph glyph-name="sacute" unicode="&#x15b;" horiz-adv-x="925" 
d="M831 256q0 -135 -100 -207t-264 -72q-165 -1 -275 87t-110 249h174q0 -195 219 -194q186 0 187 133q0 69 -79 104q-47 20 -115 41q-222 66 -288 120q-67 54 -67 175t98 192q98 70 250 70t254 -88t102 -225h-172q0 82 -48 126t-132 44t-132 -34t-48 -97t68 -94
q46 -21 94 -34q128 -35 229 -79q102 -43 135 -109q20 -44 20 -108z" />
    <glyph glyph-name="Scircumflex" unicode="&#x15c;" horiz-adv-x="1169" 
d="M92 457h187q0 -147 88 -235t225 -87q137 0 216 67t79 177q0 161 -174 227q-37 14 -117 39t-132 44t-124 57t-108 79t-62 108q-27 67 -27 150q0 171 126 277t322 106q195 0 321 -120t128 -318h-186q-2 123 -72 197q-70 73 -188 73t-192 -58q-72 -58 -72 -160t68 -153
q68 -52 178 -86q108 -35 157 -53t124 -57t115 -80t70 -107t31 -145q0 -205 -136 -319t-349 -113q-213 0 -355 133q-141 134 -141 357z" />
    <glyph glyph-name="scircumflex" unicode="&#x15d;" horiz-adv-x="925" 
d="M831 256q0 -135 -100 -207t-264 -72q-165 -1 -275 87t-110 249h174q0 -195 219 -194q186 0 187 133q0 69 -79 104q-47 20 -115 41q-222 66 -288 120q-67 54 -67 175t98 192q98 70 250 70t254 -88t102 -225h-172q0 82 -48 126t-132 44t-132 -34t-48 -97t68 -94
q46 -21 94 -34q128 -35 229 -79q102 -43 135 -109q20 -44 20 -108z" />
    <glyph glyph-name="Scedilla" unicode="&#x15e;" horiz-adv-x="1169" 
d="M92 457h187q0 -147 88 -235t225 -87q137 0 216 67t79 177q0 161 -174 227q-37 14 -117 39t-132 44t-124 57t-108 79t-62 108q-27 67 -27 150q0 171 126 277t322 106q195 0 321 -120t128 -318h-186q-2 123 -72 197q-70 73 -188 73t-192 -58q-72 -58 -72 -160t68 -153
q68 -52 178 -86q108 -35 157 -53t124 -57t115 -80t70 -107t31 -145q0 -205 -136 -319t-349 -113q-213 0 -355 133q-141 134 -141 357z" />
    <glyph glyph-name="scedilla" unicode="&#x15f;" horiz-adv-x="925" 
d="M831 256q0 -135 -100 -207t-264 -72q-165 -1 -275 87t-110 249h174q0 -195 219 -194q186 0 187 133q0 69 -79 104q-47 20 -115 41q-222 66 -288 120q-67 54 -67 175t98 192q98 70 250 70t254 -88t102 -225h-172q0 82 -48 126t-132 44t-132 -34t-48 -97t68 -94
q46 -21 94 -34q128 -35 229 -79q102 -43 135 -109q20 -44 20 -108z" />
    <glyph glyph-name="Scaron" unicode="&#x160;" horiz-adv-x="1169" 
d="M92 457h187q0 -147 88 -235t225 -87q137 0 216 67t79 177q0 161 -174 227q-37 14 -117 39t-132 44t-124 57t-108 79t-62 108q-27 67 -27 150q0 171 126 277t322 106q195 0 321 -120t128 -318h-186q-2 123 -72 197q-70 73 -188 73t-192 -58q-72 -58 -72 -160t68 -153
q68 -52 178 -86q108 -35 157 -53t124 -57t115 -80t70 -107t31 -145q0 -205 -136 -319t-349 -113q-213 0 -355 133q-141 134 -141 357z" />
    <glyph glyph-name="scaron" unicode="&#x161;" horiz-adv-x="925" 
d="M831 256q0 -135 -100 -207t-264 -72q-165 -1 -275 87t-110 249h174q0 -195 219 -194q186 0 187 133q0 69 -79 104q-47 20 -115 41q-222 66 -288 120q-67 54 -67 175t98 192q98 70 250 70t254 -88t102 -225h-172q0 82 -48 126t-132 44t-132 -34t-48 -97t68 -94
q46 -21 94 -34q128 -35 229 -79q102 -43 135 -109q20 -44 20 -108z" />
    <glyph glyph-name="Tcommaaccent" unicode="&#x162;" horiz-adv-x="978" 
d="M395 0v1266h-370v168h929v-168h-372v-1266h-187z" />
    <glyph glyph-name="tcommaaccent" unicode="&#x163;" horiz-adv-x="696" 
d="M530 -12q-66 0 -100 4q-96 12 -147 75q-70 82 -70 246v467h-172v150h172v313h178v-313h242v-150h-242v-428q0 -125 38 -164q56 -57 237 -30v-158q-70 -12 -136 -12z" />
    <glyph glyph-name="Tcaron" unicode="&#x164;" horiz-adv-x="978" 
d="M395 0v1266h-370v168h929v-168h-372v-1266h-187z" />
    <glyph glyph-name="tcaron" unicode="&#x165;" horiz-adv-x="696" 
d="M530 -12q-66 0 -100 4q-96 12 -147 75q-70 82 -70 246v467h-172v150h172v313h178v-313h242v-150h-242v-428q0 -125 38 -164q56 -57 237 -30v-158q-70 -12 -136 -12z" />
    <glyph glyph-name="Tbar" unicode="&#x166;" horiz-adv-x="978" 
d="M395 0v1266h-370v168h929v-168h-372v-1266h-187z" />
    <glyph glyph-name="tbar" unicode="&#x167;" horiz-adv-x="696" 
d="M530 -12q-66 0 -100 4q-96 12 -147 75q-70 82 -70 246v467h-172v150h172v313h178v-313h242v-150h-242v-428q0 -125 38 -164q56 -57 237 -30v-158q-70 -12 -136 -12z" />
    <glyph glyph-name="Utilde" unicode="&#x168;" horiz-adv-x="1288" 
d="M145 465v969h187v-969q0 -137 86 -233t225 -97q139 0 226 96t87 234v969h187v-969q0 -209 -138 -353q-139 -144 -361 -144t-360 144t-139 353z" />
    <glyph glyph-name="utilde" unicode="&#x169;" 
d="M819 930h178v-930h-178v166q-43 -86 -128 -137t-199 -52q-193 0 -281 121q-70 94 -70 283v549h178v-492q0 -303 234 -303q129 0 198 91t68 227v477z" />
    <glyph glyph-name="Umacron" unicode="&#x16a;" horiz-adv-x="1288" 
d="M145 465v969h187v-969q0 -137 86 -233t225 -97q139 0 226 96t87 234v969h187v-969q0 -209 -138 -353q-139 -144 -361 -144t-360 144t-139 353z" />
    <glyph glyph-name="umacron" unicode="&#x16b;" 
d="M819 930h178v-930h-178v166q-43 -86 -128 -137t-199 -52q-193 0 -281 121q-70 94 -70 283v549h178v-492q0 -303 234 -303q129 0 198 91t68 227v477z" />
    <glyph glyph-name="Ubreve" unicode="&#x16c;" horiz-adv-x="1288" 
d="M145 465v969h187v-969q0 -137 86 -233t225 -97q139 0 226 96t87 234v969h187v-969q0 -209 -138 -353q-139 -144 -361 -144t-360 144t-139 353z" />
    <glyph glyph-name="ubreve" unicode="&#x16d;" 
d="M819 930h178v-930h-178v166q-43 -86 -128 -137t-199 -52q-193 0 -281 121q-70 94 -70 283v549h178v-492q0 -303 234 -303q129 0 198 91t68 227v477z" />
    <glyph glyph-name="Uring" unicode="&#x16e;" horiz-adv-x="1288" 
d="M145 465v969h187v-969q0 -137 86 -233t225 -97q139 0 226 96t87 234v969h187v-969q0 -209 -138 -353q-139 -144 -361 -144t-360 144t-139 353z" />
    <glyph glyph-name="uring" unicode="&#x16f;" 
d="M819 930h178v-930h-178v166q-43 -86 -128 -137t-199 -52q-193 0 -281 121q-70 94 -70 283v549h178v-492q0 -303 234 -303q129 0 198 91t68 227v477z" />
    <glyph glyph-name="Uhungarumlaut" unicode="&#x170;" horiz-adv-x="1288" 
d="M145 465v969h187v-969q0 -137 86 -233t225 -97q139 0 226 96t87 234v969h187v-969q0 -209 -138 -353q-139 -144 -361 -144t-360 144t-139 353z" />
    <glyph glyph-name="uhungarumlaut" unicode="&#x171;" 
d="M819 930h178v-930h-178v166q-43 -86 -128 -137t-199 -52q-193 0 -281 121q-70 94 -70 283v549h178v-492q0 -303 234 -303q129 0 198 91t68 227v477z" />
    <glyph glyph-name="Uogonek" unicode="&#x172;" horiz-adv-x="1288" 
d="M145 465v969h187v-969q0 -137 86 -233t225 -97q139 0 226 96t87 234v969h187v-969q0 -209 -138 -353q-139 -144 -361 -144t-360 144t-139 353z" />
    <glyph glyph-name="uogonek" unicode="&#x173;" 
d="M819 930h178v-930h-178v166q-43 -86 -128 -137t-199 -52q-193 0 -281 121q-70 94 -70 283v549h178v-492q0 -303 234 -303q129 0 198 91t68 227v477z" />
    <glyph glyph-name="Wcircumflex" unicode="&#x174;" horiz-adv-x="1974" 
d="M1335 0l-348 1110l-346 -1110h-139l-490 1434h197l360 -1110l349 1110h141l348 -1110l360 1110h197l-491 -1434h-138z" />
    <glyph glyph-name="wcircumflex" unicode="&#x175;" horiz-adv-x="1503" 
d="M1012 0l-260 735l-260 -735h-123l-361 930h191l231 -656l234 656h176l231 -656l234 656h190l-360 -930h-123z" />
    <glyph glyph-name="Ycircumflex" unicode="&#x176;" horiz-adv-x="1210" 
d="M1200 1434l-721 -1434h-205l287 569l-541 865h218l419 -670l338 670h205z" />
    <glyph glyph-name="ycircumflex" unicode="&#x177;" horiz-adv-x="1173" 
d="M578 -524q-201 0 -316 102t-119 301h181q16 -252 258 -252q128 1 194 63t66 214v262q-43 -88 -127 -138t-199 -51q-193 0 -283 119q-70 94 -69 291v543h178v-488q0 -147 53 -227t183 -80t196 91q68 91 68 227v477h178v-1026q0 -428 -442 -428z" />
    <glyph glyph-name="Ydieresis" unicode="&#x178;" horiz-adv-x="1210" 
d="M1200 1434l-721 -1434h-205l287 569l-541 865h218l419 -670l338 670h205z" />
    <glyph glyph-name="Zacute" unicode="&#x179;" 
d="M72 1266v168h1067l-797 -1266h803v-168h-1116l796 1266h-753z" />
    <glyph glyph-name="zacute" unicode="&#x17a;" horiz-adv-x="888" 
d="M66 930h782l-498 -770h500v-160h-801l498 772h-481v158z" />
    <glyph glyph-name="Zdotaccent" unicode="&#x17b;" 
d="M72 1266v168h1067l-797 -1266h803v-168h-1116l796 1266h-753z" />
    <glyph glyph-name="zdotaccent" unicode="&#x17c;" horiz-adv-x="888" 
d="M66 930h782l-498 -770h500v-160h-801l498 772h-481v158z" />
    <glyph glyph-name="Zcaron" unicode="&#x17d;" 
d="M72 1266v168h1067l-797 -1266h803v-168h-1116l796 1266h-753z" />
    <glyph glyph-name="zcaron" unicode="&#x17e;" horiz-adv-x="888" 
d="M66 930h782l-498 -770h500v-160h-801l498 772h-481v158z" />
    <glyph glyph-name="Aringacute" unicode="&#x1fa;" horiz-adv-x="1144" 
d="M805 389l-232 739l-235 -739h467zM1135 0h-197l-76 219h-581l-74 -219h-197l494 1434h135z" />
    <glyph glyph-name="aringacute" unicode="&#x1fb;" horiz-adv-x="1222" 
d="M260 465q0 -137 87 -233t226 -95q139 0 227 95q87 94 87 232t-87 234q-86 96 -226 96t-227 -96t-87 -233zM887 930h176v-930h-176v162q-45 -84 -134 -134t-192 -51q-209 -1 -343 143t-134 346t134 345t343 143q101 0 191 -50t135 -134v160z" />
    <glyph glyph-name="AEacute" unicode="&#x1fc;" horiz-adv-x="2258" 
d="M2109 1266h-618v-469h618v-168h-618v-461h618v-168h-804v1434h804v-168zM805 389l-232 739l-235 -739h467zM1135 0h-197l-76 219h-581l-74 -219h-197l494 1434h135z" />
    <glyph glyph-name="aeacute" unicode="&#x1fd;" horiz-adv-x="2297" 
d="M1776 127q182 0 235 147h180q-25 -125 -137 -211t-278 -86q-225 -1 -345 137t-120 353t122 351t320 136t323 -120q124 -121 124 -299q-1 -66 -9 -117h-704q6 -131 76 -211t213 -80zM2028 553q0 119 -74 191t-193 73q-119 0 -195 -71t-77 -193h539zM260 465
q0 -137 87 -233t226 -95q139 0 227 95q87 94 87 232t-87 234q-86 96 -226 96t-227 -96t-87 -233zM887 930h176v-930h-176v162q-45 -84 -134 -134t-192 -51q-209 -1 -343 143t-134 346t134 345t343 143q101 0 191 -50t135 -134v160z" />
    <glyph glyph-name="Oslashacute" unicode="&#x1fe;" horiz-adv-x="1644" 
d="M822 135q244 0 394 173t150 409q0 237 -151 409t-393 172t-394 -172q-150 -172 -150 -408t151 -410q150 -173 393 -173zM823 -33q-331 0 -535 222q-204 221 -204 527t204 528t536 222t535 -222q204 -222 204 -527q0 -197 -87 -366q-88 -169 -260 -277t-393 -107z" />
    <glyph glyph-name="oslashacute" unicode="&#x1ff;" horiz-adv-x="1146" 
d="M260 465q0 -137 87 -233t226 -95q139 0 227 95q87 94 87 232t-87 234q-86 96 -226 96t-227 -96t-87 -233zM573 954q217 0 353 -142t137 -346q-1 -204 -137 -346t-353 -143q-217 1 -353 143t-136 346t136 346t353 142z" />
    <glyph glyph-name="Scommaaccent" unicode="&#x218;" horiz-adv-x="1169" 
d="M92 457h187q0 -147 88 -235t225 -87q137 0 216 67t79 177q0 161 -174 227q-37 14 -117 39t-132 44t-124 57t-108 79t-62 108q-27 67 -27 150q0 171 126 277t322 106q195 0 321 -120t128 -318h-186q-2 123 -72 197q-70 73 -188 73t-192 -58q-72 -58 -72 -160t68 -153
q68 -52 178 -86q108 -35 157 -53t124 -57t115 -80t70 -107t31 -145q0 -205 -136 -319t-349 -113q-213 0 -355 133q-141 134 -141 357z" />
    <glyph glyph-name="scommaaccent" unicode="&#x219;" horiz-adv-x="925" 
d="M831 256q0 -135 -100 -207t-264 -72q-165 -1 -275 87t-110 249h174q0 -195 219 -194q186 0 187 133q0 69 -79 104q-47 20 -115 41q-222 66 -288 120q-67 54 -67 175t98 192q98 70 250 70t254 -88t102 -225h-172q0 82 -48 126t-132 44t-132 -34t-48 -97t68 -94
q46 -21 94 -34q128 -35 229 -79q102 -43 135 -109q20 -44 20 -108z" />
    <glyph glyph-name="uni021A" unicode="&#x21a;" horiz-adv-x="978" 
d="M395 0v1266h-370v168h929v-168h-372v-1266h-187z" />
    <glyph glyph-name="uni021B" unicode="&#x21b;" 
d="M819 930h178v-930h-178v166q-43 -86 -128 -137t-199 -52q-193 0 -281 121q-70 94 -70 283v549h178v-492q0 -303 234 -303q129 0 198 91t68 227v477z" />
    <glyph glyph-name="uni0401" unicode="&#x401;" horiz-adv-x="1114" 
d="M965 1266h-619v-469h619v-168h-619v-461h619v-168h-805v1434h805v-168z" />
    <glyph glyph-name="uni0403" unicode="&#x403;" horiz-adv-x="972" 
d="M160 0v1434h805v-168h-619v-1266h-186z" />
    <glyph glyph-name="uni0404" unicode="&#x404;" horiz-adv-x="1527" 
d="M818 -33q-242 0 -410 108q-324 209 -324 641q0 433 318 642q167 108 415 108t419 -136t210 -349h-203q-29 139 -147 228q-119 89 -293 89q-231 0 -365 -142t-153 -355h706v-170h-706q20 -215 155 -355t371 -141q162 0 282 86q119 86 150 221h203q-41 -207 -213 -341
t-415 -134z" />
    <glyph glyph-name="uni0405" unicode="&#x405;" horiz-adv-x="1169" 
d="M92 457h187q0 -147 88 -235t225 -87q137 0 216 67t79 177q0 161 -174 227q-37 14 -117 39t-132 44t-124 57t-108 79t-62 108q-27 67 -27 150q0 171 126 277t322 106q195 0 321 -120t128 -318h-186q-2 123 -72 197q-70 73 -188 73t-192 -58q-72 -58 -72 -160t68 -153
q68 -52 178 -86q108 -35 157 -53t124 -57t115 -80t70 -107t31 -145q0 -205 -136 -319t-349 -113q-213 0 -355 133q-141 134 -141 357z" />
    <glyph glyph-name="uni0406" unicode="&#x406;" horiz-adv-x="512" 
d="M160 0v1434h192v-1434h-192z" />
    <glyph glyph-name="uni0407" unicode="&#x407;" horiz-adv-x="512" 
d="M160 0v1434h192v-1434h-192z" />
    <glyph glyph-name="uni0408" unicode="&#x408;" horiz-adv-x="1097" 
d="M952 1434v-979q0 -215 -124 -351t-334 -137q-210 0 -338 137q-127 137 -127 351h186q0 -143 76 -231t203 -89q128 0 200 87t72 233v979h186z" />
    <glyph glyph-name="uni0409" unicode="&#x409;" horiz-adv-x="1378" 
d="M20 -25v168h86q127 0 127 129v1162h986v-1434h-189v1266h-608v-1016q0 -131 -74 -203t-194 -72h-134z" />
    <glyph glyph-name="uni040A" unicode="&#x40a;" horiz-adv-x="1359" 
d="M1014 0v629h-668v-629h-186v1434h186v-637h668v637h186v-1434h-186z" />
    <glyph glyph-name="uni040C" unicode="&#x40c;" horiz-adv-x="1216" 
d="M346 1434v-590h35q152 0 248 164l127 215q133 219 315 219h86v-168h-53q-121 0 -195 -131l-110 -193q-98 -170 -283 -202l666 -748h-242l-594 688v-688h-186v1434h186z" />
    <glyph glyph-name="uni040E" unicode="&#x40e;" horiz-adv-x="1210" 
d="M1200 1434l-721 -1434h-205l287 569l-541 865h218l419 -670l338 670h205z" />
    <glyph glyph-name="uni040F" unicode="&#x40f;" horiz-adv-x="1314" 
d="M743 -199h-170v199h-413v1434h186v-1266h623v1266h186v-1434h-412v-199z" />
    <glyph glyph-name="uni0410" unicode="&#x410;" horiz-adv-x="1144" 
d="M805 389l-232 739l-235 -739h467zM1135 0h-197l-76 219h-581l-74 -219h-197l494 1434h135z" />
    <glyph glyph-name="uni0411" unicode="&#x411;" horiz-adv-x="1185" 
d="M692 651h-346v-483h344q94 0 157 71q62 71 62 171t-61 171q-62 70 -156 70zM991 1434v-168h-645v-447h346q176 0 290 -120q114 -119 114 -289t-115 -290t-291 -120h-530v1434h831z" />
    <glyph glyph-name="uni0412" unicode="&#x412;" horiz-adv-x="1210" 
d="M346 809h307q127 0 187 70q59 71 59 159t-60 158t-190 70h-303v-457zM664 639h-318v-471h313q129 0 190 70q60 70 60 160t-62 166q-62 75 -183 75zM160 0v1434h489q332 0 416 -253q20 -62 20 -130q1 -125 -75 -214t-181 -110q95 -6 181 -97t86 -231t-91 -261
q-47 -62 -139 -100t-215 -38h-491z" />
    <glyph glyph-name="uni0413" unicode="&#x413;" horiz-adv-x="972" 
d="M160 0v1434h805v-168h-619v-1266h-186z" />
    <glyph glyph-name="uni0414" unicode="&#x414;" horiz-adv-x="1427" 
d="M1047 168v1098h-441v-457q0 -268 -50 -431t-179 -210h670zM197 -199h-170v367h22q181 0 277 128t96 355v783h813v-1266h117v-367h-168v199h-987v-199z" />
    <glyph glyph-name="uni0415" unicode="&#x415;" horiz-adv-x="1114" 
d="M965 1266h-619v-469h619v-168h-619v-461h619v-168h-805v1434h805v-168z" />
    <glyph glyph-name="uni0416" unicode="&#x416;" horiz-adv-x="1781" 
d="M84 1274h-51v168h76q186 0 311 -228l119 -219q96 -180 227 -180h35v619h180v-619h35q129 0 227 180l119 219q123 227 311 228h76v-168h-51q-113 0 -187 -137l-96 -183q-96 -182 -260 -213l612 -741h-241l-545 690v-690h-180v690l-547 -690h-240l613 741q-164 31 -260 213
l-97 183q-74 137 -186 137z" />
    <glyph glyph-name="uni0417" unicode="&#x417;" horiz-adv-x="1173" 
d="M88 453h186q0 -141 90 -225t224 -85q133 0 209 74t75 184q0 252 -307 252h-94v166h96q143 0 213 68t70 169t-74 168q-74 66 -200 66t-209 -70q-84 -70 -84 -192h-187q0 194 137 312t345 118t332 -102q126 -102 126 -285q0 -123 -68 -210t-180 -111q119 -23 195 -115
t76 -234q0 -188 -133 -307t-347 -119t-353 128q-138 129 -138 350z" />
    <glyph glyph-name="uni0418" unicode="&#x418;" horiz-adv-x="1357" 
d="M1012 0v1063l-666 -967v-96h-186v1434h186v-1063l666 966v97h186v-1434h-186z" />
    <glyph glyph-name="uni0419" unicode="&#x419;" horiz-adv-x="1357" 
d="M1012 0v1063l-666 -967v-96h-186v1434h186v-1063l666 966v97h186v-1434h-186z" />
    <glyph glyph-name="uni041A" unicode="&#x41a;" horiz-adv-x="1216" 
d="M346 1434v-590h35q152 0 248 164l127 215q133 219 315 219h86v-168h-53q-121 0 -195 -131l-110 -193q-98 -170 -283 -202l666 -748h-242l-594 688v-688h-186v1434h186z" />
    <glyph glyph-name="uni041B" unicode="&#x41b;" horiz-adv-x="1378" 
d="M20 -25v168h86q127 0 127 129v1162h986v-1434h-189v1266h-608v-1016q0 -131 -74 -203t-194 -72h-134z" />
    <glyph glyph-name="uni041C" unicode="&#x41c;" horiz-adv-x="1662" 
d="M1503 1434v-1434h-188v999l-412 -999h-143l-414 999v-999h-186v1434h180l491 -1147l492 1147h180z" />
    <glyph glyph-name="uni041D" unicode="&#x41d;" horiz-adv-x="1359" 
d="M1014 0v629h-668v-629h-186v1434h186v-637h668v637h186v-1434h-186z" />
    <glyph glyph-name="uni041E" unicode="&#x41e;" horiz-adv-x="1644" 
d="M822 135q244 0 394 173t150 409q0 237 -151 409t-393 172t-394 -172q-150 -172 -150 -408t151 -410q150 -173 393 -173zM823 -33q-331 0 -535 222q-204 221 -204 527t204 528t536 222t535 -222q204 -222 204 -527q0 -197 -87 -366q-88 -169 -260 -277t-393 -107z" />
    <glyph glyph-name="uni041F" unicode="&#x41f;" horiz-adv-x="1363" 
d="M1018 1266h-672v-1266h-186v1434h1044v-1434h-186v1266z" />
    <glyph glyph-name="uni0420" unicode="&#x420;" horiz-adv-x="1220" 
d="M664 627q137 0 221 92t84 226t-85 227t-220 94h-318v-639h318zM160 0v1434h504q219 0 355 -142t136 -347q0 -204 -136 -346t-355 -142h-318v-457h-186z" />
    <glyph glyph-name="uni0421" unicode="&#x421;" horiz-adv-x="1587" 
d="M836 -33q-340 0 -546 219q-206 218 -206 528t201 531t512 221t489 -148t221 -386h-196q-33 162 -160 264t-320 102q-253 0 -405 -171t-152 -413t158 -410q158 -169 426 -169q147 0 274 87q126 87 171 220h204q-55 -207 -238 -341t-433 -134z" />
    <glyph glyph-name="uni0422" unicode="&#x422;" horiz-adv-x="978" 
d="M395 0v1266h-370v168h929v-168h-372v-1266h-187z" />
    <glyph glyph-name="uni0423" unicode="&#x423;" horiz-adv-x="1210" 
d="M1200 1434l-721 -1434h-205l287 569l-541 865h218l419 -670l338 670h205z" />
    <glyph glyph-name="uni0424" unicode="&#x424;" horiz-adv-x="1574" 
d="M1012 1071h-131v-709h131q139 0 226 102t87 253q0 150 -87 252t-226 102zM563 362h131v709h-131q-139 0 -226 -102t-87 -252q0 -151 87 -253t226 -102zM1012 195h-131v-195h-187v195h-131q-221 -1 -360 151t-140 371t139 371t361 151h131v195h187v-195h131
q223 0 362 -152q139 -153 139 -371t-139 -370t-362 -151z" />
    <glyph glyph-name="uni0425" unicode="&#x425;" horiz-adv-x="1122" 
d="M561 879l330 555h213l-436 -717l436 -717h-213l-330 555l-330 -555h-211l435 717l-435 717h211z" />
    <glyph glyph-name="uni0426" unicode="&#x426;" horiz-adv-x="1370" 
d="M1339 -199h-168v199h-1011v1434h186v-1266h623v1266h186v-1266h184v-367z" />
    <glyph glyph-name="uni0427" unicode="&#x427;" horiz-adv-x="1185" 
d="M1026 0h-186v455h-287q-225 0 -349 129t-124 331v519h186v-471q0 -160 82 -250t240 -90h252v811h186v-1434z" />
    <glyph glyph-name="uni0428" unicode="&#x428;" horiz-adv-x="1861" 
d="M1702 0h-1542v1434h186v-1266h492v1266h186v-1266h492v1266h186v-1434z" />
    <glyph glyph-name="uni0429" unicode="&#x429;" horiz-adv-x="1918" 
d="M1888 -199h-188v199h-1540v1434h186v-1266h492v1266h186v-1266h492v1266h186v-1266h186v-367z" />
    <glyph glyph-name="uni042A" unicode="&#x42a;" horiz-adv-x="1316" 
d="M25 1266v168h475v-615h346q176 0 290 -120q114 -119 114 -289t-116 -290q-114 -120 -290 -120h-531v1266h-288zM846 651h-346v-483h344q94 0 156 71t63 171t-61 170t-156 71z" />
    <glyph glyph-name="uni042B" unicode="&#x42b;" horiz-adv-x="1525" 
d="M1180 0v1434h186v-1434h-186zM655 651h-309v-483h307q94 0 157 71q62 71 62 171t-61 171q-62 70 -156 70zM160 1434h186v-615h309q176 0 290 -120q114 -119 114 -289t-115 -290t-291 -120h-493v1434z" />
    <glyph glyph-name="uni042C" unicode="&#x42c;" horiz-adv-x="1163" 
d="M692 651h-346v-483h344q94 0 157 71q62 71 62 171t-61 171q-62 70 -156 70zM160 1434h186v-615h346q176 0 290 -120q114 -119 114 -289t-115 -290t-291 -120h-530v1434z" />
    <glyph glyph-name="uni042D" unicode="&#x42d;" horiz-adv-x="1542" 
d="M553 629v170h711q-20 219 -154 359t-339 140q-206 0 -331 -101t-159 -265h-197q43 240 217 387t480 147q307 0 493 -214t186 -538t-191 -535q-191 -212 -524 -212q-248 0 -428 134t-235 341h205q43 -133 174 -220t284 -87q223 0 359 135q135 135 160 359h-711z" />
    <glyph glyph-name="uni042E" unicode="&#x42e;" horiz-adv-x="2199" 
d="M1377 135q243 0 393 173t151 409q0 237 -151 409q-152 172 -394 172t-392 -172t-150 -408t150 -410q150 -173 393 -173zM1378 -33q-307 -1 -506 191t-229 471h-297v-629h-186v1434h186v-637h297q27 281 227 475t520 194t524 -222t204 -527q0 -197 -87 -366t-259 -277
t-394 -107z" />
    <glyph glyph-name="uni042F" unicode="&#x42f;" horiz-adv-x="1241" 
d="M578 627h315v639h-315q-134 0 -220 -94t-86 -227q0 -134 84 -226t222 -92zM1081 1434v-1434h-188v457h-293l-285 -457h-215l303 487q-147 51 -233 177t-86 282q0 203 137 345t357 143h503z" />
    <glyph glyph-name="uni0430" unicode="&#x430;" horiz-adv-x="1222" 
d="M260 465q0 -137 87 -233t226 -95q139 0 227 95q87 94 87 232t-87 234q-86 96 -226 96t-227 -96t-87 -233zM887 930h176v-930h-176v162q-45 -84 -134 -134t-192 -51q-209 -1 -343 143t-134 346t134 345t343 143q101 0 191 -50t135 -134v160z" />
    <glyph glyph-name="uni0431" unicode="&#x431;" horiz-adv-x="1181" 
d="M291 467q0 -141 86 -235t225 -95q139 0 227 95q89 94 89 232t-88 234t-228 96q-139 0 -225 -92q-86 -94 -86 -235zM104 653q0 781 703 781h186v-172h-235q-229 0 -344 -121q-142 -150 -148 -451q36 125 142 195t231 69q211 0 334 -141t123 -345t-135 -347t-347 -144
q-254 -1 -382 179t-128 497z" />
    <glyph glyph-name="uni0432" unicode="&#x432;" horiz-adv-x="995" 
d="M334 539h244q57 0 93 39t36 93t-37 93t-95 39h-241v-264zM584 412h-250v-285h250q57 0 98 41t41 98q0 58 -41 102t-98 44zM160 0v930h430q160 0 228 -73t67 -161t-61 -147t-148 -70q92 -4 159 -65q67 -60 67 -158t-78 -177q-77 -79 -244 -79h-420z" />
    <glyph glyph-name="uni0433" unicode="&#x433;" horiz-adv-x="729" 
d="M160 930h559v-150h-381v-780h-178v930z" />
    <glyph glyph-name="uni0434" unicode="&#x434;" horiz-adv-x="1130" 
d="M807 141v650h-354v-304q-1 -285 -148 -346h502zM182 -213h-159v354h32q113 0 172 84t60 230v475h686v-789h94v-354h-160v213h-725v-213z" />
    <glyph glyph-name="uni0435" unicode="&#x435;" horiz-adv-x="1073" 
d="M803 553q1 119 -73 191t-193 73q-119 0 -195 -71t-78 -193h539zM551 127q182 0 235 147h181q-23 -125 -136 -211t-280 -86q-223 -1 -343 137t-120 353t121 351t319 136t324 -120q125 -120 125 -299q0 -66 -8 -117h-705q4 -129 74 -210t213 -81z" />
    <glyph glyph-name="uni0436" unicode="&#x436;" horiz-adv-x="1368" 
d="M35 795v145h76q141 0 221 -141l88 -156q34 -57 66 -82t83 -24h31v393h168v-393h31q51 1 84 25t65 81l86 156q82 141 221 141h78v-145h-51q-74 0 -121 -93l-53 -98q-61 -113 -201 -123l432 -481h-204l-367 438v-438h-168v438l-367 -438h-204l432 481q-141 10 -201 123
l-53 98q-47 92 -121 93h-51z" />
    <glyph glyph-name="uni0437" unicode="&#x437;" horiz-adv-x="878" 
d="M68 276h172q0 -70 53 -112t140 -41q87 0 135 35q48 34 48 100t-48 106t-138 39h-100v127h90q178 0 178 146q0 59 -46 97t-128 38t-126 -41t-44 -108h-172q0 132 95 212t251 80t248 -72t92 -174t-52 -159t-143 -72q93 -10 153 -70t60 -170t-103 -185t-263 -75t-256 81
t-96 218z" />
    <glyph glyph-name="uni0438" unicode="&#x438;" horiz-adv-x="1155" 
d="M819 0v647l-481 -571v-76h-178v930h178v-654l481 576v78h176v-930h-176z" />
    <glyph glyph-name="uni0439" unicode="&#x439;" horiz-adv-x="1155" 
d="M819 0v647l-481 -571v-76h-178v930h178v-654l481 576v78h176v-930h-176z" />
    <glyph glyph-name="uni043A" unicode="&#x43a;" horiz-adv-x="1011" 
d="M338 930v-400h29q78 0 147 107l121 176q47 67 94 97t117 30h94v-145h-55q-78 0 -127 -74l-76 -115q-70 -106 -190 -121l471 -485h-215l-410 432v-432h-178v930h178z" />
    <glyph glyph-name="uni043B" unicode="&#x43b;" horiz-adv-x="1148" 
d="M37 -18v159h49q53 0 80 23t27 84v682h796v-930h-178v780h-440v-551q0 -123 -68 -185t-180 -62h-86z" />
    <glyph glyph-name="uni043C" unicode="&#x43c;" horiz-adv-x="1435" 
d="M1276 930v-930h-162v778l-336 -778h-121l-335 778v-778h-162v930h260l299 -690l299 690h258z" />
    <glyph glyph-name="uni043D" unicode="&#x43d;" horiz-adv-x="1167" 
d="M831 0v395h-493v-395h-178v930h178v-385h493v385h177v-930h-177z" />
    <glyph glyph-name="uni043E" unicode="&#x43e;" horiz-adv-x="1146" 
d="M260 465q0 -137 87 -233t226 -95q139 0 227 95q87 94 87 232t-87 234q-86 96 -226 96t-227 -96t-87 -233zM573 954q217 0 353 -142t137 -346q-1 -204 -137 -346t-353 -143q-217 1 -353 143t-136 346t136 346t353 142z" />
    <glyph glyph-name="uni043F" unicode="&#x43f;" horiz-adv-x="1161" 
d="M1001 930v-930h-178v780h-485v-780h-178v930h841z" />
    <glyph glyph-name="uni0440" unicode="&#x440;" horiz-adv-x="1226" 
d="M963 464q-1 138 -87 234t-225 97q-139 -1 -226 -97t-87 -233t87 -233t226 -95q139 0 226 95q86 94 86 232zM338 930v-160q45 84 133 134t191 50q211 0 345 -143t134 -346t-134 -345t-345 -143q-102 1 -190 51t-134 134v-666h-178v1434h178z" />
    <glyph glyph-name="uni0441" unicode="&#x441;" horiz-adv-x="1083" 
d="M555 795q-137 1 -213 -95t-76 -236t76 -234t223 -93q203 0 250 182h178q-23 -153 -135 -247t-316 -94q-206 0 -330 142q-124 144 -124 345t124 345t336 144t320 -105t123 -257h-178q-25 203 -258 203z" />
    <glyph glyph-name="uni0442" unicode="&#x442;" horiz-adv-x="786" 
d="M27 930h735v-150h-281v-780h-178v780h-276v150z" />
    <glyph glyph-name="uni0443" unicode="&#x443;" horiz-adv-x="1173" 
d="M578 -524q-201 0 -316 102t-119 301h181q16 -252 258 -252q128 1 194 63t66 214v262q-43 -88 -127 -138t-199 -51q-193 0 -283 119q-70 94 -69 291v543h178v-488q0 -147 53 -227t183 -80t196 91q68 91 68 227v477h178v-1026q0 -428 -442 -428z" />
    <glyph glyph-name="uni0444" unicode="&#x444;" horiz-adv-x="1269" 
d="M256 464q0 -140 82 -238t221 -99l-2 676q-139 -7 -220 -103t-81 -236zM1014 465q0 139 -81 235t-220 103v-676q139 3 220 101t81 237zM559 -502v479q-207 13 -341 153t-134 336t133 335t340 151v482h156v-482q207 -12 341 -152t134 -335t-134 -335t-341 -153v-479h-154z
" />
    <glyph glyph-name="uni0445" unicode="&#x445;" horiz-adv-x="901" 
d="M553 469l315 -469h-204l-213 330l-213 -330h-205l315 469l-311 461h205l209 -324l208 324h205z" />
    <glyph glyph-name="uni0446" unicode="&#x446;" horiz-adv-x="1200" 
d="M1139 -168h-176v168h-803v930h178v-780h471v780h178v-780h152v-318z" />
    <glyph glyph-name="uni0447" unicode="&#x447;" horiz-adv-x="978" 
d="M819 0h-178v285h-227q-158 0 -242 81t-84 236v328h178v-324q0 -172 174 -172h201v496h178v-930z" />
    <glyph glyph-name="uni0448" unicode="&#x448;" horiz-adv-x="1609" 
d="M895 930v-780h377v780h178v-930h-1290v930h178v-780h379v780h178z" />
    <glyph glyph-name="uni0449" unicode="&#x449;" horiz-adv-x="1665" 
d="M1604 -168h-177v168h-1267v930h178v-780h379v780h178v-780h377v780h178v-780h154v-318z" />
    <glyph glyph-name="uni044A" unicode="&#x44a;" horiz-adv-x="1011" 
d="M600 465h-219v-322h217q76 0 120 45t44 116t-43 116t-119 45zM213 0v780h-180v150h348v-322h250q139 0 217 -86t78 -217t-79 -218t-218 -87h-416z" />
    <glyph glyph-name="uni044B" unicode="&#x44b;" horiz-adv-x="1316" 
d="M547 465h-219v-322h217q76 0 119 45t43 116t-42 116t-118 45zM160 0v930h168v-322h250q137 0 215 -86q77 -86 77 -217t-78 -218t-217 -87h-415zM981 0v930h176v-930h-176z" />
    <glyph glyph-name="uni044C" unicode="&#x44c;" horiz-adv-x="958" 
d="M547 465h-219v-322h217q76 0 119 45t43 116t-42 116t-118 45zM160 0v930h168v-322h250q137 0 215 -86q77 -86 77 -217t-78 -218t-217 -87h-415z" />
    <glyph glyph-name="uni044D" unicode="&#x44d;" horiz-adv-x="1095" 
d="M551 954q213 0 336 -142t123 -347t-123 -346t-336 -141t-333 96q-120 98 -128 245h178q33 -182 275 -182q133 0 205 71t81 189h-391v135h391q-8 117 -80 190q-73 73 -202 73q-129 -1 -196 -57t-81 -146h-176q4 154 124 258t333 104z" />
    <glyph glyph-name="uni044E" unicode="&#x44e;" horiz-adv-x="1544" 
d="M338 391v-391h-178v930h178v-389h149q25 176 156 295q131 118 338 118t344 -142t137 -346t-137 -346t-344 -142t-338 117q-131 118 -156 296h-149zM971 137q139 0 226 95q87 94 87 232t-87 234t-226 96t-225 -96t-87 -233q0 -137 86 -233q87 -95 226 -95z" />
    <glyph glyph-name="uni044F" unicode="&#x44f;" horiz-adv-x="1032" 
d="M428 449h270v335h-270q-80 0 -130 -49t-50 -119t50 -118t130 -49zM68 632q0 118 90 208t233 90h481v-930h-174v301h-225l-190 -301h-207l215 319q-98 27 -161 111q-62 84 -62 202z" />
    <glyph glyph-name="uni0451" unicode="&#x451;" horiz-adv-x="1073" 
d="M803 553q1 119 -73 191t-193 73q-119 0 -195 -71t-78 -193h539zM551 127q182 0 235 147h181q-23 -125 -136 -211t-280 -86q-223 -1 -343 137t-120 353t121 351t319 136t324 -120q125 -120 125 -299q0 -66 -8 -117h-705q4 -129 74 -210t213 -81z" />
    <glyph glyph-name="uni0453" unicode="&#x453;" horiz-adv-x="729" 
d="M160 930h559v-150h-381v-780h-178v930z" />
    <glyph glyph-name="uni0454" unicode="&#x454;" horiz-adv-x="1103" 
d="M657 532v-135h-391q8 -119 81 -189t206 -71q242 0 274 182h179q-8 -147 -128 -244t-333 -97t-336 140q-123 142 -123 347t123 347t336 142t333 -104t126 -258h-179q-14 90 -81 146q-68 56 -196 56t-201 -72q-73 -73 -81 -190h391z" />
    <glyph glyph-name="uni0455" unicode="&#x455;" horiz-adv-x="925" 
d="M831 256q0 -135 -100 -207t-264 -72q-165 -1 -275 87t-110 249h174q0 -195 219 -194q186 0 187 133q0 69 -79 104q-47 20 -115 41q-222 66 -288 120q-67 54 -67 175t98 192q98 70 250 70t254 -88t102 -225h-172q0 82 -48 126t-132 44t-132 -34t-48 -97t68 -94
q46 -21 94 -34q128 -35 229 -79q102 -43 135 -109q20 -44 20 -108z" />
    <glyph glyph-name="uni0457" unicode="&#x457;" horiz-adv-x="0" 
 />
    <glyph glyph-name="uni0458" unicode="&#x458;" horiz-adv-x="497" 
d="M106 1283q0 58 42 101t102 43t101 -43q42 -43 42 -102t-42 -100t-102 -41t-102 42q-41 42 -41 100zM338 930v-1180q0 -141 -62 -207q-62 -65 -154 -65q-93 0 -147 24v158q51 -12 91 -12q94 0 94 129v1153h178z" />
    <glyph glyph-name="uni0459" unicode="&#x459;" horiz-adv-x="1148" 
d="M37 -18v159h49q53 0 80 23t27 84v682h796v-930h-178v780h-440v-551q0 -123 -68 -185t-180 -62h-86z" />
    <glyph glyph-name="uni045A" unicode="&#x45a;" horiz-adv-x="1167" 
d="M831 0v395h-493v-395h-178v930h178v-385h493v385h177v-930h-177z" />
    <glyph glyph-name="uni045C" unicode="&#x45c;" horiz-adv-x="1011" 
d="M338 930v-400h29q78 0 147 107l121 176q47 67 94 97t117 30h94v-145h-55q-78 0 -127 -74l-76 -115q-70 -106 -190 -121l471 -485h-215l-410 432v-432h-178v930h178z" />
    <glyph glyph-name="uni045E" unicode="&#x45e;" horiz-adv-x="1173" 
d="M578 -524q-201 0 -316 102t-119 301h181q16 -252 258 -252q128 1 194 63t66 214v262q-43 -88 -127 -138t-199 -51q-193 0 -283 119q-70 94 -69 291v543h178v-488q0 -147 53 -227t183 -80t196 91q68 91 68 227v477h178v-1026q0 -428 -442 -428z" />
    <glyph glyph-name="uni0490" unicode="&#x490;" horiz-adv-x="972" 
d="M160 0v1434h805v-168h-619v-1266h-186z" />
    <glyph glyph-name="uni0491" unicode="&#x491;" horiz-adv-x="729" 
d="M160 930h559v-150h-381v-780h-178v930z" />
    <glyph glyph-name="Wgrave" unicode="&#x1e80;" horiz-adv-x="1974" 
d="M1335 0l-348 1110l-346 -1110h-139l-490 1434h197l360 -1110l349 1110h141l348 -1110l360 1110h197l-491 -1434h-138z" />
    <glyph glyph-name="wgrave" unicode="&#x1e81;" horiz-adv-x="1503" 
d="M1012 0l-260 735l-260 -735h-123l-361 930h191l231 -656l234 656h176l231 -656l234 656h190l-360 -930h-123z" />
    <glyph glyph-name="Wacute" unicode="&#x1e82;" horiz-adv-x="1974" 
d="M1335 0l-348 1110l-346 -1110h-139l-490 1434h197l360 -1110l349 1110h141l348 -1110l360 1110h197l-491 -1434h-138z" />
    <glyph glyph-name="wacute" unicode="&#x1e83;" horiz-adv-x="1503" 
d="M1012 0l-260 735l-260 -735h-123l-361 930h191l231 -656l234 656h176l231 -656l234 656h190l-360 -930h-123z" />
    <glyph glyph-name="Wdieresis" unicode="&#x1e84;" horiz-adv-x="1974" 
d="M1335 0l-348 1110l-346 -1110h-139l-490 1434h197l360 -1110l349 1110h141l348 -1110l360 1110h197l-491 -1434h-138z" />
    <glyph glyph-name="wdieresis" unicode="&#x1e85;" horiz-adv-x="1503" 
d="M1012 0l-260 735l-260 -735h-123l-361 930h191l231 -656l234 656h176l231 -656l234 656h190l-360 -930h-123z" />
    <glyph glyph-name="Ygrave" unicode="&#x1ef2;" horiz-adv-x="1210" 
d="M1200 1434l-721 -1434h-205l287 569l-541 865h218l419 -670l338 670h205z" />
    <glyph glyph-name="ygrave" unicode="&#x1ef3;" horiz-adv-x="1173" 
d="M578 -524q-201 0 -316 102t-119 301h181q16 -252 258 -252q128 1 194 63t66 214v262q-43 -88 -127 -138t-199 -51q-193 0 -283 119q-70 94 -69 291v543h178v-488q0 -147 53 -227t183 -80t196 91q68 91 68 227v477h178v-1026q0 -428 -442 -428z" />
    <glyph glyph-name="endash" unicode="&#x2013;" horiz-adv-x="602" 
d="M541 664v-160h-480v160h480z" />
    <glyph glyph-name="emdash" unicode="&#x2014;" horiz-adv-x="602" 
d="M541 664v-160h-480v160h480z" />
    <glyph glyph-name="ff" unicode="&#xfb00;" horiz-adv-x="1421" 
d="M1399 1270q-53 16 -113 16q-61 0 -94 -20q-59 -36 -59 -156v-180h266v-150h-266v-780h-179v780h-200v150h200v162q0 96 24 166t55 105q74 83 239 83q82 0 127 -25v-151zM688 1270q-54 16 -114 16t-93 -20q-59 -36 -59 -156v-180h266v-150h-266v-780h-178v780h-201v150
h201v162q0 96 24 166t55 105q74 83 238 83q82 0 127 -25v-151z" />
    <glyph glyph-name="fi" unicode="&#xfb01;" horiz-adv-x="1208" 
d="M817 1283q0 58 42 101t100 43q57 0 101 -43t44 -101t-43 -100t-101 -42t-101 42q-42 42 -42 100zM870 0v930h179v-930h-179zM688 1270q-54 16 -114 16t-93 -20q-59 -36 -59 -156v-180h266v-150h-266v-780h-178v780h-201v150h201v162q0 96 24 166t55 105q74 83 238 83
q82 0 127 -25v-151z" />
  </font>
</defs>
</svg>
